<svg id="Capa_1" data-name="Capa 1" xmlns="http://www.w3.org/2000/svg" viewBox="0 0 1375 464"><defs><style>.cls-1,.cls-3{fill:#fff;}.cls-1{stroke:#000;stroke-linecap:round;stroke-linejoin:round;stroke-width:14px;}.cls-2{fill:#0092a3;}.cls-3{font-size:125px;font-family:Champagne&Limousines, "Champagne & Limousines";}</style></defs><title>Banner Nuestros servicios</title><rect class="cls-1" x="7" y="7" width="1361" height="450"/><path class="cls-2" d="M186,50.16a105.62,105.62,0,0,0,1.6,18.34A114.53,114.53,0,0,0,208,116.69a141.33,141.33,0,0,0,11,13.49c32.8,41,88,25.11,132.62,23a19.55,19.55,0,0,1,19.11,8.49C391,188.21,417.5,210.51,451,206.22c4.51-.3,9-.74,13.47-1.25,47.77-5.53,90.62-20.52,124-41.95q8.34-5.36,15.86-11.23c41.44-23,21.26-64.46-6.35-93.13C577.84,39.54,608.64,16.18,618.2-5.06c7.43-15.93,3.18-32.92-9.86-43A173.08,173.08,0,0,0,591.16-61c-42.95-28.44-102.28-46-167.82-46-6.2,0-12.35.16-18.38.6-21.45.46-39.5,11.08-52.24,28.07C331.48-50.72,310.24,3.44,278.39-4,272-6.12,271-19.92,264.58-27.36,248.65-42.22,223.17-38,211-19.92A117.86,117.86,0,0,0,202.18-7C191.74,10.72,186,30,186,50.16Z" transform="translate(599 177)"/><text class="cls-3" transform="translate(913.77 225.39)">Click <tspan x="0" y="80.4">aquí</tspan></text><path class="cls-2" d="M-499.24,45.5c-12.28-15.18-11-36.73-12.47-56.3-.14-1.84-.26-3.63-.36-5.38Q-513-31.92-513-51.69q0-21.91,1.82-46.09.46-6.24,6.55-6.24a32,32,0,0,1,8.82,1.22,29.3,29.3,0,0,0,8.36,1.21A7.14,7.14,0,0,1-480.58-97q3,8.2,5.63,16.58.75,2.43,1.52,4.86,6.26,18.64,12.16,37.39l1.68,5.36c2.57,6.11,2.57,13.71,6.37,20,0-10.14,1.27-21.55,2.45-31.23q.38-3.32.74-6.37t.71-5.88q.68-5.62,1.74-14.14c.31-2.23.61-4.72.92-7.46.2-1.52.4-3,.61-4.41l.6-4a4.88,4.88,0,0,1,2.89-3.58,11.79,11.79,0,0,1,4.72-1,12.41,12.41,0,0,1,5,1.07c1.62.71,2.43,1.77,2.43,3.19l-.15,1.37q-3.33,21.82-5.49,43.07c-.21,2-.4,4.05-.59,6.07-3.92,27.05,4.95,53.66-5.19,79-5.07-16.47-19-27.88-23.3-46.22q-.87-2.35-1.7-4.69-1.65-4.68-3.13-9.4-8.21-26-16.57-51.87v-.15a3.75,3.75,0,0,0-.76-1.52c-.11,1.32-.21,2.64-.31,4-.3,2.84-.51,5.63-.61,8.37q-.6,11.57-1.06,19.17c-.13,2-.25,4-.35,5.89s-.21,3.74-.3,5.52C-490-7.71-495,11.31-490,32.85c1.27,6.34,1.27,12.68-2.53,17.75a15.52,15.52,0,0,0-3.39-1.3A25.92,25.92,0,0,1-499.24,45.5Z" transform="translate(599 177)"/><path class="cls-2" d="M-394.37,26a18.73,18.73,0,0,0-2.3,3.58c-3.1,6.17-3.1,13.21-8.38,18.49-16.48-29.15-19-67.18-17.06-99.72.08-1.85.17-3.7.28-5.55q.49-8.32,1.48-16.69A5.54,5.54,0,0,1-416-78.47a27.84,27.84,0,0,1,6.77-.91,24.32,24.32,0,0,1,7.3,1.14,4.84,4.84,0,0,1,3.65,5.1,65.61,65.61,0,0,1-1.21,9.28c-.21,1.21-.41,2.48-.61,3.8-.22,1.74-.42,3.48-.6,5.23s-.36,3.5-.5,5.26c0,20.31-7.63,41.86,6.31,60.88,0,1.26,3.79-3.49,6,.12,1.6-.12,1.6,1.14,2.87,1.14,7.61-17.74,6.34-38,9.87-57.64q.26-3.55.45-7.1.39-7.09.54-14.28c.1-2.33.21-4.66.31-7a3.29,3.29,0,0,1,2.28-3.5,11,11,0,0,1,5.17-1.36,11.68,11.68,0,0,1,5,1.14A4,4,0,0,1-360-73.29q-.15,4.86-.3,8.82-.45,11.4-1,19.31c-.09,1.32-.19,2.76-.32,4.31s-.26,3.24-.42,5c-5,24.3,1.31,57.26-16.43,73.73-2.54,1.27-6.34-10.14-12.18-13.19A5.87,5.87,0,0,0-394.37,26Z" transform="translate(599 177)"/><path class="cls-2" d="M-325.12,33.79c-.08,5.4-6.41,9.2-10.22,5.4C-341.67,27.78-348,17.64-351.67,6.6c-.47-1.28-.88-2.55-1.24-3.85a47.76,47.76,0,0,1-1.58-12.47,90.78,90.78,0,0,1,6.69-36.5,44.11,44.11,0,0,1,12.17-16.12,27.19,27.19,0,0,1,17.8-6.39,27.35,27.35,0,0,1,6.39.76A17.29,17.29,0,0,1-300-59.83a26.35,26.35,0,0,1,3.73,13.61,34.25,34.25,0,0,1-.31,4.53,34.28,34.28,0,0,1-.91,4.44c-1.13,9.26-6.2,15.6-12.47,22.14A38.5,38.5,0,0,1-313-12.5a35.51,35.51,0,0,1-3.37,2.21c-1.17.67-2.38,1.27-3.63,1.87-14,3.25-17.83,15.92-9,27.33,3.8,3.8,6.34-1.27,9.33-5.95a56.3,56.3,0,0,0,5.11-5.18,27.94,27.94,0,0,0,3.72-5.89c.85-.72.85-3.26,2.12-3.26C-301.11-2.64-296,7.5-296,13.84c-1.27,11.41-7.61,8.87-16.47,6.41-2.33.91-4.67,1.63-6.84,3.62a16.38,16.38,0,0,0-3,4.28C-323.3,29.92-324.21,31.86-325.12,33.79ZM-332.44-12c2.17-2,6-3.3,8.68-6.35A31.68,31.68,0,0,0-320.23-22a32.12,32.12,0,0,0,3-4.32,42.66,42.66,0,0,0,5.78-20.54A16.11,16.11,0,0,0-312.66-53c-.81-2-2.43-3-4.87-3a4.81,4.81,0,0,0-3,1.06,30.09,30.09,0,0,0-10.5,17.64c-.4,1.83-.78,3.66-1.12,5.5.66,6.3-4.41,13.9-1,20Z" transform="translate(599 177)"/><path class="cls-2" d="M-257.36,45c-7,1.84-7-4.5-8.26-8.3-3.8-7.61-8.87-13.95-13.94-20.28,0-1.27,1.26-6.34,7.6-3.81,5.07,3.81,6.34,14,10.14,15.21,8.45.85,11.27-6.19,12.58-13.61.33-1.85.57-3.73.77-5.52A38.51,38.51,0,0,0-248,3.1a52.5,52.5,0,0,0-.17-5.38A11,11,0,0,0-251-6.7c-5.19-5-15.14-7.15-21.32-11.83q-2.2-1.08-4.21-2.29a43.78,43.78,0,0,1-3.81-2.58C-283.37-28-291-30.52-291-36.56a22.2,22.2,0,0,1-1.4-7.83,27.83,27.83,0,0,1,2-9.89q4.57-11.72,13.85-17.49a38.8,38.8,0,0,1,21-5.78,28.32,28.32,0,0,1,5.7.53c18.52,7.2,33.73,37.62,17.25,54.1-2.53-2.53-6.33-5.07-7.6-8.87,0-12.68,0-27.89-11.95-35.31a10.85,10.85,0,0,0-6,1.51,19.32,19.32,0,0,0-5.44,4.84q-5.16,6.48-5.17,13.31,0,8.07,8.37,14.15a50,50,0,0,0,6.39,3.8C-239-14-216.19,5-225.8,27.63a24,24,0,0,1-3.06,5.22c-.95.95-1.83.56-2.76-.5s-1.92-2.78-3.11-4.48a14.21,14.21,0,0,0-4.3-4.36,6.67,6.67,0,0,0-6.33-.13,19.13,19.13,0,0,0-3.8,4.22,37.83,37.83,0,0,0-5,10.83C-255.17,40.74-256.25,43-257.36,45Z" transform="translate(599 177)"/><path class="cls-2" d="M-196.92,49.1c-10.4-22.58-11.66-46.67-10.39-70.83,0-1.59.08-3.17.13-4.75.08-2.37.17-4.75.28-7.12,3.39-12.13-1.68-24.81,2.12-37.48a22.6,22.6,0,0,0-6.38.13c-2.26.3-4.55.74-6.61,1-2.22.16-6,1.43-7.29-2.37a10.65,10.65,0,0,1,1.92-4.59,9.74,9.74,0,0,1,4.67-1.64c3.73-.52,8.35-.29,11.89-.47,1.65-.12,3.26-.25,4.85-.35q11.94-.73,24-.74l5.17.15a12.66,12.66,0,0,1,5,1.07c1.67.71,2.51,1.67,2.51,2.89,0,1-.66,1.9-2,2.66a8.68,8.68,0,0,1-4.41,1.14l-13.69.31a2.11,2.11,0,0,0-1.29.3,1.49,1.49,0,0,0-.38,1.22q-.16,3.8-.46,7.45-.57,9.59-1,19.19-.15,3.21-.28,6.42c-4.77,28.37,5.37,58.79-2.87,87.2C-193.53,53.58-195.33,52.8-196.92,49.1Z" transform="translate(599 177)"/><path class="cls-2" d="M-149.9,46.81c-11.78-20.29-14.32-41.84-14-64.41,0-1.94,0-3.88,0-5.8h-.3a387.3,387.3,0,0,1,4.26-55.83,8.43,8.43,0,0,1,6.08-7.15A21.59,21.59,0,0,1-148.16-88a48.38,48.38,0,0,1,5.7-.3h1.52a72.16,72.16,0,0,1,12.85,1.14,46.27,46.27,0,0,1,6.26,1.58,52,52,0,0,1,6.14,2.45C-97-71.08-100.84-45.73-98.31-26.72c1.27,10.14-6.33,11.41-15.21,8.87-2.53-1.27-3.8,3.8-3.8,6.34,1.27,13.94,15.21,26.62,7.61,40.56a20.1,20.1,0,0,1-4.22-4.28c-5.75-7.84-5.92-18.79-12.26-26.43-.71-1.26-1.44-2.52-2.21-3.84-1.6-2.21-2.86-3.47-4.13-6-22.82,17.75,0,49.43-11.41,73.52-1.27-3.81-5.07-6.34-4.52-10.85Q-149.17,49-149.9,46.81Zm8.22-61.73c4.08-2.93,9.15-6.73,13.4-9.32a34.39,34.39,0,0,0,4-2.72,35.62,35.62,0,0,0,3.68-3.29,49.44,49.44,0,0,0,3.21-4.85c6.37-9.37,3.83-18.24,2.6-27.1A26.77,26.77,0,0,0-116.56-67a26.93,26.93,0,0,0-2.48-4.1q-5.62-7.68-16.73-9c-.61,0-.91.25-.91.76l.15.46.15,2a26.66,26.66,0,0,1-.45,4.87q-.76,5.33-1.52,10.8c-.28,1.85-.55,3.7-.79,5.55s-.48,3.71-.7,5.56c-.3,10.77-2.83,23.45-2.77,34.48C-142.6-14.78-142.3-14.51-141.68-14.92Z" transform="translate(599 177)"/><path class="cls-2" d="M-60,27.39c-1.51,4.2-2.78,8-4.35,11.58a34.7,34.7,0,0,1-1.15,3.91,12.69,12.69,0,0,1-4.88,6.45c-.85-2-1.73-4-2.63-6s-1.82-4-2.74-6C-84.36,21.45-89.43,5-93.28-12.8c-.24-2.2-.39-4.42-.43-6.66a67.44,67.44,0,0,1,.22-6.79q.31-3.41.91-6.83a122.21,122.21,0,0,1,11-32.4,38.42,38.42,0,0,1,3.89-4.32q8.28-7.9,20.91-7.91a28.9,28.9,0,0,1,12.7,3,28.82,28.82,0,0,1,10.73,9.2,48.84,48.84,0,0,1,7.68,17.11c.37,1.56.68,3.11.9,4.64-5,24.67-7.58,56.36-31.33,67.49A19.6,19.6,0,0,0-60,27.39ZM-59,13.66a11.63,11.63,0,0,0,6.26-3.45,43.75,43.75,0,0,0,5.63-7,72.48,72.48,0,0,0,8.52-34.07,71.21,71.21,0,0,0-2.67-18.86A37.36,37.36,0,0,0-50.59-66.3a5.12,5.12,0,0,0-3.8-2.13c-1.73,0-3.81.92-6.24,2.74a25.36,25.36,0,0,0-8.67,14.6,80.49,80.49,0,0,0-1.94,8.86c-.26,1.57-.49,3.18-.69,4.85-2.29,17-1,36,7.52,51.44C-63,15.31-61.24,14.89-59,13.66Z" transform="translate(599 177)"/><path class="cls-2" d="M15.27,24.23C6.9,25.25.56,32.85-8.31,32.85c-3.8-1.26-6.34-10.14-1.27-11.4,10.14-1.27,19-5.07,28.41-7.65a7,7,0,0,0,4-1.23c8.2-6.33,3.13-16.47-3.1-22C18.46-10.22,17.22-11,16-11.65,8.17-16.58-2-17.85-9-24.11a31,31,0,0,1-4.22-4.27c-3.79-4.66-6.1-10.35-5.66-16a28.19,28.19,0,0,1,.53-4.82,31.29,31.29,0,0,1,1.49-5.06Q-12.26-66-3-71.77a38.8,38.8,0,0,1,21-5.78,32.15,32.15,0,0,1,10.89,1.8,30,30,0,0,1,4.84,2.26c11.18,8.74,20.06,31.56,6.11,36.63-7.6,2.53-8.87-11.41-9.37-21.68a21.77,21.77,0,0,0-3.65-6.24,7,7,0,0,0-5.47-2.43q-6.24,0-11.41,6.46T4.78-47.44q0,8.07,8.36,14.15a50,50,0,0,0,6.39,3.8c1,.51,2,1.07,3,1.68,13.47,12.5,35,44.19,14.74,59.4C32.25,35.39,32.25,25.25,27,26a16.16,16.16,0,0,0-4.89-2.19A25.45,25.45,0,0,0,15.27,24.23Z" transform="translate(599 177)"/><path class="cls-2" d="M-487.56,177.86c-1.15,3.3-6.22,5.83-8.75,4.56-6.34-5.07-11.41-12.67-7.61-22.81,8.87,16.48,22.82,5.07,29.15-6.34,8.88-15.21-12.67-20.28-23.15-26.8-1.47-.71-2.88-1.47-4.21-2.28a40.7,40.7,0,0,1-10.24-8.67A22.61,22.61,0,0,1-518,100.61a27.58,27.58,0,0,1,2-9.88q4.56-11.72,13.84-17.5a38.89,38.89,0,0,1,21-5.78A29.94,29.94,0,0,1-461,74.68,23.09,23.09,0,0,1-452.59,93a35.61,35.61,0,0,1-.46,5.47,5.1,5.1,0,0,1-3,4,11.73,11.73,0,0,1-5.24,1.21,12.44,12.44,0,0,1-4.72-1q-2.43-1-2.43-2.82c.1-.71.2-1.31.3-1.82.2-.81.35-1.6.46-2.36a19.36,19.36,0,0,0,.15-2.51,20,20,0,0,0-4.87-12.93,6.94,6.94,0,0,0-5.47-2.43q-6.24,0-11.41,6.46t-5.17,13.31q0,8.07,8.36,14.15a51.23,51.23,0,0,0,6.39,3.8c1,.51,2,1.06,3,1.67a49.31,49.31,0,0,1,5.82,3.47c20.13,13.6,29,51.62,7.45,63-1.9.95.48-8.08-5.12-12.77a12.33,12.33,0,0,0-3.83-1.57c-3.72.4-7.53.4-10.33,3A40.38,40.38,0,0,0-487.56,177.86Z" transform="translate(599 177)"/><path class="cls-2" d="M-418.27,183.23c-3.26,3-3.26,11.87-5.79,8.07-13.95-17.75-26.62-38-23.88-62.17.15-2.27.35-4.5.55-6.64s.41-4.19.58-6.11q.54-3.07,1.31-6a87,87,0,0,1,3.85-11.56,44.26,44.26,0,0,1,12.17-16.13,27.23,27.23,0,0,1,12.92-6,30,30,0,0,1,4.88-.39c2.68.47,5.29.7,7.7,1.3,21.74,13.58,15.41,47.8,1.46,64.28-6.33-5.07-13.94-5.07-19.83.33a14.16,14.16,0,0,0-2.77,4.66c-2.47,6.7-.21,14.87,4.86,19.1,2.53,1.26,4.44-.64,6.28-3.55,2.59-4.06,5.13-9.13,8.93-9.13,11.41-2.54,17.74,10.14,19,20.28-8.87,0-19-13.94-26.19-4.1a21.5,21.5,0,0,0-3.36,6.7C-416.5,178.35-417.39,180.76-418.27,183.23Zm-7.53-49.14c1.5-1.19,2.89-2.39,4.27-3.57,13.94-6.4,19-21.61,15.21-35.56-2.53-6.33-11.41-6.33-13.49.93a28.77,28.77,0,0,0-3.65,6.78,32.12,32.12,0,0,0-1.45,5.09c-1.69,8.75-4.22,17.62-1.59,26.78Z" transform="translate(599 177)"/><path class="cls-2" d="M-364,193.4c-.46,3-3,6.77-3,5.5-6.86-10-10.43-20.73-12.29-31.83-.37-2.22-.68-4.46-.95-6.73-5.77-24.82-2-51.43.33-77.37.2-2,.41-3.87.64-5.79q.68-5.73,1.54-11.4a8.43,8.43,0,0,1,6.08-7.15A21.22,21.22,0,0,1-366,57a48.22,48.22,0,0,1,5.7-.31h1.52a72.16,72.16,0,0,1,12.85,1.14,49.13,49.13,0,0,1,12.4,4,30.75,30.75,0,0,1,4.31,2.63c15.4,17.83,19.2,45.71,5.26,64.73-2.53,5.07-3.8-10.14-8.87,0-5.07,11.4,7.6,25.35,8.87,39.29,0,3.8-3.8,10.14-8.87,6.34A41.74,41.74,0,0,1-336,169c-4.54-9.79-5.34-20.14-10.17-29.44-.76-1.41-1.55-2.82-2.36-4.29a27.08,27.08,0,0,0-1.37-2.43c-.2-.51-.51-.76-.91-.76a15.34,15.34,0,0,0-2.28.45,23.86,23.86,0,0,1-5,.46h-1.37a2.08,2.08,0,0,0-1,.15c-.15.11-.23.41-.23.91q-.15,2.94-.26,5.86t-.21,5.89c-3.29,13.79,5.58,27.73-1.41,41C-363.07,189.22-363.54,191.42-364,193.4Zm4.82-68.3a13.28,13.28,0,0,0,4-.61,36.14,36.14,0,0,0,13.2-6.44,35.62,35.62,0,0,0,3.68-3.29,40.29,40.29,0,0,0,3.21-5c6.16-7.22,3.63-18.63,2.61-27.08A29.3,29.3,0,0,0-334.37,78a26.93,26.93,0,0,0-2.48-4.1q-5.62-7.68-16.73-9c-.61,0-.91.25-.91.76l.15.45.15,2a26.66,26.66,0,0,1-.45,4.87q-.76,5.32-1.52,10.8-1.68,11.1-2.59,22.21c-.3,3.34-.56,6.64-.76,9.88-.2,2.74-.41,5.53-.61,8.37A.81.81,0,0,0-359.21,125.1Z" transform="translate(599 177)"/><path class="cls-2" d="M-280.8,172.57c-5.1,3.52-7.64,17.46-10.17,13.66-12.68-19-8.88-43.1-13.91-66.15-.56-2.44-1.1-4.85-1.62-7.27-4.13-19.37-6.27-39.32.83-56.92a18.29,18.29,0,0,1,7-1.52,16.33,16.33,0,0,1,5.48.92,5.91,5.91,0,0,1,3.65,3.8,126.06,126.06,0,0,1,2,13.69q2.13,19.69,5.31,39.39c.3,1.88.61,3.75.93,5.63a95.17,95.17,0,0,0,4,21.59c.62-2.38,1.19-4.67,1.75-6.88q3.93-16.54,6-26.5,2.51-11.94,5.09-26.54,1.53-7.91,3.65-18.86A3.26,3.26,0,0,1-259,58.48,11.25,11.25,0,0,1-253.49,57a13.17,13.17,0,0,1,5,1.06c1.72.71,2.58,1.83,2.58,3.35l-.15,1.52c-.31,1.62-.66,3.25-1.07,4.87q-1.66,7.3-2.89,14.75-6.23,35.89-15.81,71.19a85.11,85.11,0,0,1-3.35,10.49,8.73,8.73,0,0,1-4.72,4.34,26.71,26.71,0,0,0-3.28,1.36A14.6,14.6,0,0,0-280.8,172.57Z" transform="translate(599 177)"/><path class="cls-2" d="M-230.26,188.63a39.75,39.75,0,0,1-4.94,11.54c-6.34-33-1.27-65.91-5-98.59l0-6.67q0-10,0-20.31a4.71,4.71,0,0,1,3.42-4.94,20.05,20.05,0,0,1,6.31-1.14,19.47,19.47,0,0,1,6.69,1.21,3.46,3.46,0,0,1,2.59,2.82,24,24,0,0,1,.46,4.79q-.61,25.86-1.07,37.27c-.08,4-.16,8.36-.27,13,0,1.54-.07,3.12-.11,4.74-1.55,15.86,2.25,33.61-5.7,49.19A57.41,57.41,0,0,0-230.26,188.63Z" transform="translate(599 177)"/><path class="cls-2" d="M-179.91,171.9c-5.86,4.19-5.86,21.93-10.93,15.59-19-21.54-20.28-52-19.88-80.17.17-1.74.37-3.49.62-5.26s.54-3.54.86-5.33a73.14,73.14,0,0,1,6.39-19.54,29.77,29.77,0,0,1,11-12.09,28.7,28.7,0,0,1,15-4A24.3,24.3,0,0,1-157.52,70q7.61,8.91,7.61,21.68a14.69,14.69,0,0,1-.54,4,4.69,4.69,0,0,1-2.66,3,10.39,10.39,0,0,1-4.71,1.22,9.34,9.34,0,0,1-4.8-1.29,4.34,4.34,0,0,1-2.2-4V93a35.46,35.46,0,0,0-2.89-14.15,1.14,1.14,0,0,1-.15-.46c-.51-1.21-1.09-2.43-1.75-3.65s-1.4-1.82-2.21-1.82l-.76.3a23.82,23.82,0,0,0-9.35,10.42,59.24,59.24,0,0,0-4.49,13.16c-.35,1.66-.68,3.34-1,5s-.56,3.45-.8,5.23c-2.65,15.76-1.38,31,1.16,46.18,1.26,3.8,5.07,10.14,9.75,6.11a27.1,27.1,0,0,0,4-4.31c4-5.6,4-15.74,9.06-17a16,16,0,0,1,6.82.91,10.66,10.66,0,0,1,4.51,3.27c5.15,7.23,3.88,16.1.79,24.52a40.93,40.93,0,0,1-2.62,5.94,25.65,25.65,0,0,1-3.16,4.65c-3.8,2.54-7.61-13.94-16.6-8.82A15.65,15.65,0,0,0-179.91,171.9Z" transform="translate(599 177)"/><path class="cls-2" d="M-127.18,194.37c-23.1-22.09-9.15-58.85-14.11-86.18,0-1.83,0-3.67,0-5.51q-.06-13.82-.07-28.08A4.71,4.71,0,0,1-138,69.66a20.11,20.11,0,0,1,6.32-1.14A19.47,19.47,0,0,1-125,69.73a3.45,3.45,0,0,1,2.58,2.82,23.25,23.25,0,0,1,.46,4.79q-.51,21.55-.91,33.06c0,1.54-.1,2.94-.15,4.21-3.2,24.72,4.4,48.8-.52,74.61C-124.48,192.17-125.68,194-127.18,194.37Z" transform="translate(599 177)"/><path class="cls-2" d="M-80.81,173.35c-6.09,2.74-4.82,18-11.16,12.88-10.14-10.14-12.67-26.62-17.77-40.44q-.75-2-1.35-4c-.39-1.33-.74-2.67-1-4A79.5,79.5,0,0,1-113.87,121a82.66,82.66,0,0,1,4.26-25.7,48.7,48.7,0,0,1,12.4-20.08q8.28-7.9,20.91-7.91a28.94,28.94,0,0,1,12.7,3,28.7,28.7,0,0,1,10.72,9.2A48.58,48.58,0,0,1-46.5,92c.5,1.5.94,3,1.31,4.58,7.72,26.27-5,51.62-16.36,75.7-1.9,3.81-4.43,4.12-7.09,3.25a23.12,23.12,0,0,1-4-1.9,11.88,11.88,0,0,0-3.89-1.5A4.7,4.7,0,0,0-80.81,173.35Zm1.87-12.09c2.12-1.14,4.71-.36,6-.38q1.53-2.48,3-5.06c8.6-15.47,14.45-33.63,11.41-50.93-.27-1.59-.58-3.17-.95-4.77s-.73-3.21-1.17-4.83a37.31,37.31,0,0,0-9.35-16.58,5.12,5.12,0,0,0-3.81-2.13q-2.58,0-6.23,2.74a25.32,25.32,0,0,0-8.67,14.6,89.68,89.68,0,0,0-2.63,13.69c-.19,1.66-.35,3.36-.48,5.12,1.18,15.19-3.89,36.74,9.18,48.66C-81.55,161.42-80.27,161.35-78.94,161.26Z" transform="translate(599 177)"/><path class="cls-2" d="M-5.2,171.7C-15.92,169.75-34.93,185-29.86,171c3.8-8.88,21.55-6.34,34.16-7.58a13.73,13.73,0,0,0,2.23-4.75,18.9,18.9,0,0,0-.78-10.43A32.62,32.62,0,0,0,3.35,143C-2,130.45-15.92,130.45-24.42,123a52.46,52.46,0,0,1-5.21-4.3,39.45,39.45,0,0,1-3-3.19c-4.82-4.08-4.82-10.42-5.62-14.91a24.59,24.59,0,0,1,.49-4.83,31.42,31.42,0,0,1,1.48-5Q-31.72,79-22.45,73.23a38.89,38.89,0,0,1,21-5.78,33.58,33.58,0,0,1,5.65.46,29.53,29.53,0,0,1,5.27,1.35C29.71,74.68,32.25,100,27.18,116.51c-6.34-3.8-13.94-10.14-13.94-16.48,0-7.6-1.27-15.21-5.84-19.79A7.07,7.07,0,0,0,1.88,77.8q-6.24,0-11.41,6.46T-14.7,97.57q0,8.07,8.37,14.15a51.23,51.23,0,0,0,6.39,3.8,29.9,29.9,0,0,1,3,1.73c19,11.94,30.44,38.55,13.89,56.61-.84,1.59-1.67,3.18-2.47,4.76-1.26,2.22-2.61,3.25-4,3.49a5.48,5.48,0,0,1-4.07-1.26,85.47,85.47,0,0,0-7.27-7A12.75,12.75,0,0,0-5.2,171.7Z" transform="translate(599 177)"/></svg>