<svg id="Capa_1" data-name="Capa 1" xmlns="http://www.w3.org/2000/svg" viewBox="0 0 1375 464"><defs><style>.cls-1{stroke:#fff;stroke-linecap:round;stroke-linejoin:round;stroke-width:14px;}.cls-2{fill:#df90b6;}.cls-3{font-size:125px;font-family:Champagne&Limousines, "Champagne & Limousines";}</style></defs><title>Botonclickaqui</title><rect class="cls-1" x="7" y="7" width="1361" height="450"/><path class="cls-2" d="M-431.85,30.46a4.08,4.08,0,0,0-3.59-.26C-439.33,32.44-436,40.5-441,43c-5-14-3-28-5-41.58a9,9,0,0,0-3.59-2.55c-8.81-3.43-19.92,3.34-27.13,9.84A46.88,46.88,0,0,0-481,13.1c-3,2.9-3,6.9-3,10.9,2,17,11,33,7,51-20-12-19-44-22.95-65.38-.14-3.61-.19-7.17-.21-10.69,0-10.42.23-20.53-.6-28.93.22-2.78.5-5.45.83-8.09s.78-5.18,1.25-7.71a120,120,0,0,1,9.89-29.91,53,53,0,0,1,6.83-11,36.21,36.21,0,0,1,9.66-8.48,23.29,23.29,0,0,1,12.24-3.29,33.73,33.73,0,0,1,15.31,3.84A26.81,26.81,0,0,1-433-83.24a72.86,72.86,0,0,1,6.35,17.82A191.76,191.76,0,0,1-423.63-46q2.36,16.49,2.9,27c.05.88.09,1.75.13,2.63l.12,2.62c-.14,1.32-.23,2.66-.28,4s-.09,2.88-.09,4.39c.92,13.69,2.39,26.79,2.37,39.71,0,1.43,0,2.87-.07,4.3A106.09,106.09,0,0,1-428,80c-7-15-1-31-2.86-46.82A7.31,7.31,0,0,0-431.85,30.46Zm-52.61-40.87C-472-14-459-15-447-15a37.46,37.46,0,0,0-.5-7.64l-.94-7.07v-.47a220.94,220.94,0,0,0-5-28.73,89.66,89.66,0,0,0-6.76-19.94c-1.25-1.88-2.72-2.82-4.39-2.82a5.52,5.52,0,0,0-4.4,2.35,54.58,54.58,0,0,0-7.06,14.44q-2.83,9.19-4.87,18.57c-.45,2.08-.88,4.18-1.27,6.28C-484-30-486-20-484.93-10.41Z" transform="translate(599 177)"/><path class="cls-2" d="M-376.22,29a5.62,5.62,0,0,0-2.92.53c-3.22,5.38-1.67,11.14-3.38,16.38A12.25,12.25,0,0,1-384,49c-4-2-4-8-7-11,0,1-1,1-1,2-6-11-9-24-14.64-35.15-.3-.88-.58-1.78-.84-2.69a74.23,74.23,0,0,1-1.95-8.47,101.89,101.89,0,0,1-1.49-17,131.57,131.57,0,0,1,2.2-23.79,85.65,85.65,0,0,1,7.06-22q8.81-16.8,28.26-16.33a33.27,33.27,0,0,1,18.61,5.73,21.91,21.91,0,0,1,10.13,15.93A3.85,3.85,0,0,1-346.94-60a11.29,11.29,0,0,1-4.95,1.1,10.16,10.16,0,0,1-4.47-1,6.11,6.11,0,0,1-3.06-3.38,28.41,28.41,0,0,0-4.24-8.4q-3-4.16-5.81-4.16a2.76,2.76,0,0,0-1.41.48A32.7,32.7,0,0,0-382.19-61.5a60.56,60.56,0,0,0-4.55,18.29q-.94,9.89-.94,19.47l0,1.67c0,1.1,0,2.5,0,3.95C-386-7-390,9-380,16.62a6.68,6.68,0,0,0,2.82,2,9.75,9.75,0,0,0,3.76.78,6.71,6.71,0,0,0,3.3-.78,23.82,23.82,0,0,0,4.34-4C-356,6-358-8-355-20c-2,0-3,0-4.81-.13l-4.64.16a27.61,27.61,0,0,1-6.75-.87c-2.3-.57-3.45-1.65-3.45-3.22q0-1.73,2.43-2.82A14.82,14.82,0,0,1-367-28.14q9,0,16.33-.63a16.15,16.15,0,0,1,2.2-.15,26.66,26.66,0,0,1,5,.47,26.84,26.84,0,0,0,2.83.16,21.82,21.82,0,0,1,5.81.78,10.61,10.61,0,0,1,3.22,1.34,2.5,2.5,0,0,1,1.33,2.11c0,1.26-.89,2.26-2.67,3a14.62,14.62,0,0,1-5.33,1.13C-346-3-334,21-349,33c-2,2-9-6-16.46-5.58-1.16.32-2.34.6-3.54.81A34.1,34.1,0,0,1-376.22,29Z" transform="translate(599 177)"/><path class="cls-2" d="M-301.36,33.32C-305,38-305,52-309,48c-15-11-19-31-22.1-49.59A15.58,15.58,0,0,1-331-5.84c0-1.69,0-3.36,0-5a92.28,92.28,0,0,1,6.87-32.66,45.6,45.6,0,0,1,12.56-16.65,28.11,28.11,0,0,1,18.37-6.59,27.94,27.94,0,0,1,6.59.79,19.32,19.32,0,0,1,3.74,1.25C-266-51-272-23-279-5c-2,8-10-2-16.44.47-1.31.52-2.66,1-4.06,1.52A12.22,12.22,0,0,0-306,19a6.9,6.9,0,0,0,5.49.51,35.82,35.82,0,0,0,5.55-2.1C-287,15-276,12-271,17s-1,14-9,16c-6,1-10-5-14.89-5.7a6.57,6.57,0,0,0-3.54,1.38A11.66,11.66,0,0,0-301.36,33.32Zm-7-42.58C-306-10-304-12-302-12.82a30.4,30.4,0,0,0,2.76-2,29.35,29.35,0,0,0,3.65-3.66C-289-27-285-38-287.83-50.5c-.84-2-2.51-3.07-5-3.07a5,5,0,0,0-3.14,1.1,31.06,31.06,0,0,0-10.83,18.21q-.63,2.82-1.16,5.67t-1,5.71C-309-18-312-14-309.17-9Z" transform="translate(599 177)"/><path class="cls-2" d="M-252.58,54.14C-263,40-261,22-261.32,6.18c-.09-1.95-.18-3.87-.28-5.78-1-20.91-1.79-41.89.45-62,.09-1.53.18-3.07.28-4.66q.44-7,1.14-15.09A8,8,0,0,1-255-88.11,19,19,0,0,1-247-90a22.47,22.47,0,0,1,9.26,2,8.49,8.49,0,0,1,3.69,3.21,25,25,0,0,1,2.27,4.64q1.11,3.28,2,6.59.93,3,1.88,6,5.34,14.91,10.36,30.14,3.54,10.71,7.33,21.52c.42,1.2.85,2.4,1.27,3.68C-209-10-208-8-207-6c-1-4,1-8,1-11.92.08-1,.15-2,.22-3.07s.12-2.05.17-3.07q.48-6,1.1-12.08l3.61-40.2a3.45,3.45,0,0,1,2.75-3.61,18.3,18.3,0,0,1,5-.78,14.61,14.61,0,0,1,5.18.94A3.66,3.66,0,0,1-185.47-76q-1.72,18.21-2.51,27.94t-1.42,17q-.47,6.6-1.33,15.86-.75,8.1-1.93,21.86c-.11,1.31-.23,2.66-.35,4C-195,27-200,42-203,58c-3-13-11-25-11.46-38.72-.2-1.23-.4-2.47-.62-3.71-.88-4.93-2-9.78-4.58-13.89-.47-1.3-1-2.58-1.43-3.87q-7.12-19.33-13.21-38.66V-41a3.14,3.14,0,0,0-.94-1.57q-.94,23.07-1.26,29.36c-.1,2.82-.21,5.21-.31,7.14-.05,1-.1,2.12-.16,3.44C-240,17-233,41-248.58,58.17Z" transform="translate(599 177)"/><path class="cls-2" d="M-155.3,40.67C-156,46-160,55-161,53c-8-11-10-27-10.44-40.95-.2-1.33-.38-2.66-.54-4-.64-5.32-1-10.62-1.4-15.63l-.21-3.78q-1.57-28.5-2.46-62.8a38.05,38.05,0,0,1,.31-4.71,5.43,5.43,0,0,1,3.38-3.85,13.72,13.72,0,0,1,5.42-1.17,149,149,0,0,1,23.78,2,65.56,65.56,0,0,1,22.22,7.69,41.35,41.35,0,0,1,16,16.88,48.7,48.7,0,0,1,5,13.42,85,85,0,0,1,1.42,14.68,62.91,62.91,0,0,1-7.85,30.46c-.68,1.13-1.39,2.22-2.14,3.27S-110,6.56-110.8,7.54C-119,14-115,28-123,31c-2,0-4-9-10.08-7.85-.89.35-1.73.67-2.57,1a74.56,74.56,0,0,1-7.22,2.15c-1.21.3-2.43.57-3.65.8a6.33,6.33,0,0,0-3.34.79,7.8,7.8,0,0,0-2.34,2.38C-154,32-155,34-154.47,36.44-154.79,37.75-155.06,39.17-155.3,40.67ZM-146.53,18a44.14,44.14,0,0,0,7.08-2.59c1.12-.52,2.22-1.1,3.3-1.73C-125,11-121,1-117.46-9.33c.45-1.22.86-2.45,1.23-3.7a60.2,60.2,0,0,0,2.35-15.89,60.69,60.69,0,0,0-5-24.34,33.38,33.38,0,0,0-13.27-15.31,43.79,43.79,0,0,0-20-6.2q-.78-.15-.78.63v.63a340.18,340.18,0,0,1,2.67,34.07q.78,15.85,1.1,26.53.47,11.63,1.41,29.67v.48a1.27,1.27,0,0,0,.16.62.5.5,0,0,0,.47.32Z" transform="translate(599 177)"/><path class="cls-2" d="M-34.11,57.63C-38,40-49,24-46.06,5.46l-.15-3.22c-.16-3.22-.32-6.43-.47-9.65q-.32-6.28-.63-12.41a2.74,2.74,0,0,0-.55-1.49,1.87,1.87,0,0,0-1.34-.39l-4.23-.16q-4.56,0-9.11.32c-3,.1-6.07.15-9.11.15H-74c-.53,0-.84.11-.94.32a1.67,1.67,0,0,0-.16.78l0,3C-78,3-66,23-74,42c-3-8-10-11-14-18-5-9-2-20-2.64-31.41v-6.28q0-9.42.78-19.47A82.35,82.35,0,0,1-86.25-52q3.3-9.42,10-14a26.43,26.43,0,0,1,15.47-4.63q13.19,0,22.13,12.08a61,61,0,0,1,7.54,18.06,138,138,0,0,1,4.72,25c.11,1.24.22,2.47.3,3.72-.44,9.39-.41,18.84-1,28.32-.09,1.35-.19,2.7-.3,4.06C-32,34-25,49-32.6,61.67A23,23,0,0,1-34.11,57.63ZM-61.44-29.55A46.08,46.08,0,0,1-55-30l5.8.16c.53,0,.79-.21.79-.63a4.41,4.41,0,0,1-.16-1.1A92.07,92.07,0,0,0-52.1-46.66a28.88,28.88,0,0,0-8.4-12.88A4.15,4.15,0,0,0-63-60.48a4.42,4.42,0,0,0-3,1.26,30,30,0,0,0-6.44,13.34,100.6,100.6,0,0,0-2.2,15.39q0,.63.24.78a1.58,1.58,0,0,0,.86.16Z" transform="translate(599 177)"/><path class="cls-2" d="M-471.37,199c-13.63-9-14.63-25-16.36-39.58-.11-1.31-.17-2.59-.25-3.88s0-2.46,0-3.69q0-10.95.53-22c.11-2.45.25-4.91.41-7.35.34-1.55.61-3,.82-4.5s.36-2.87.43-4.24C-486,109-486,103-491,100c-6-4-9,3-13,6-2,1-4-2-6-4,1,2,4,4,4,3,6-13,18-15,29.5-15l4-.65A249.61,249.61,0,0,1-444,86c-15,5-30,13-24.21,31.23q-.19,4.38-.37,8.79-.51,13.23-.74,26.5,0,6,.09,11.72c0,1.27.05,2.54.11,3.85C-469,179-464,190-469.18,199.94-469.8,200.26-470.53,199.88-471.37,199Z" transform="translate(599 177)"/><path class="cls-2" d="M-415.11,188.53C-425,190-420,202-422,207c-1,3-8,3-10,1-7-8-3-20-5.77-31-.19-1.46-.38-2.93-.56-4.39a111.24,111.24,0,0,0-3-17c-.15-1.1-.29-2.17-.42-3.25a243.22,243.22,0,0,1-1.78-29.75q0-8.56.51-17.16.26-4.29.63-8.6c.36-4.11-1-9.65,2.58-12.19a7.2,7.2,0,0,1,2.77-1.12C-431,85-427,90-421.95,85a5.51,5.51,0,0,1,2.73,2.13c2.8,4.46-2.64,13.16-1.91,19.53q-.22,2-.42,4-1.14,12.15-1.14,24.4l.15,11.46V148a109.49,109.49,0,0,0,1.18,13.43A34.27,34.27,0,0,0-416.88,174a2,2,0,0,0,1.25.95l2.2.15a12.81,12.81,0,0,0,4.47-.78,6.3,6.3,0,0,0,3.38-3.14,80.73,80.73,0,0,0,5.5-17.43A416.82,416.82,0,0,0-394.9,96l.15-3.61c.05-1.21.11-2.41.16-3.62a3.4,3.4,0,0,1,2.36-3.61,12.61,12.61,0,0,1,2.66-1.06,10.64,10.64,0,0,1,2.67-.35,12,12,0,0,1,5.18,1.18,4.09,4.09,0,0,1,2.52,4q-.17,5-.32,9.11-.47,11.77-1,19.94t-2,22.13a112.78,112.78,0,0,1-6.91,30.62,28.8,28.8,0,0,1-10.36,13.19,26.08,26.08,0,0,1-9.84,4,27,27,0,0,1-2.72.38C-413.25,188.43-414.19,188.48-415.11,188.53Z" transform="translate(599 177)"/><path class="cls-2" d="M-285.21,203.29C-286,204-287,204-288,205c-1-8-9-9-15-11-7-3-3-14-6.26-21.33-.31-.79-.6-1.59-.87-2.41a101.82,101.82,0,0,1-6-33.92,118.94,118.94,0,0,1,2-21.58,77.54,77.54,0,0,1,5.14-17.09c.46-1,1-2.08,1.45-3.09C-304,88-299,83-292.49,80.28a30,30,0,0,1,3.77-1.3,31.24,31.24,0,0,1,8.11-1,26.05,26.05,0,0,1,11,2.3,23.88,23.88,0,0,1,3.2,1.78C-257,90-253,103-255,115c0,4-6,3-10.93,1.64a4.47,4.47,0,0,1-2.28-4.16v-1.57a36.42,36.42,0,0,0-3-14.6,1.16,1.16,0,0,1-.16-.47,40.31,40.31,0,0,0-1.8-3.77c-.68-1.26-1.44-1.88-2.28-1.88l-.78.31a24.58,24.58,0,0,0-9.66,10.75,61.2,61.2,0,0,0-4.63,13.59A150.84,150.84,0,0,0-293.64,145c0,1.21,0,2.43,0,3.68.66,3.59,1.34,7.1,2.08,10.54.25,1.15.51,2.29.76,3.43,1.79,6.4,3.79,13.4,6,19.9.43,1.08.87,2.17,1.33,3.25s.94,2.17,1.44,3.25c3-5,3-12,6.66-16.57a26.57,26.57,0,0,0,1.32-2.8,69.47,69.47,0,0,0,3.62-11.78,6.07,6.07,0,0,1,3.76-3.76,13.77,13.77,0,0,1,2.65-.68C-249,152-252,172-256,182c-1,4-7-3-10.39,1.69-1.23.7-2.43,1.49-3.66,2.2-.83.47-1.68.89-2.55,1.32C-277,191-279,197-283.16,201.32A18.77,18.77,0,0,1-285.21,203.29Z" transform="translate(599 177)"/><path class="cls-2" d="M-232.63,218.51C-234,220-234,221-235,222c-10-17-7-39-8.61-57.63,0-1.14,0-2.26,0-3.37q-.06-11.59-.19-22.78,0-2.44-.06-4.86C-242,122-251,109-246,101c3-5,12-12,20-11,4,0,2,7,1.91,11.18q-.07,3.1-.15,6-.44,17.22-.79,26.06-.16,8.31-.4,18.29c0,1.66-.08,3.49-.13,5.49,0,1-.05,2-.07,3.13C-226,178-226,197-230.81,214.7A23,23,0,0,1-232.63,218.51Z" transform="translate(599 177)"/><path class="cls-2" d="M-188.46,204C-194,192-200,181-199.8,166.7c-.07-1.25-.13-2.48-.19-3.72-.16-3.71-.24-7.4-.24-11.09q0-14.61.94-29.36.06-5.59.3-11.32l.12-2.87C-196,95-205,90-216.95,90.66a6.1,6.1,0,0,1-2.53-1.26,2.48,2.48,0,0,1-.84-1.88c0-1.15.76-2.07,2.27-2.75a13.87,13.87,0,0,1,2.29-.8C-209,82-207,89-201,88c4,0,9-3,12.74-5.41a17.71,17.71,0,0,1,3.77-.45q2.48-.09,5-.15a14,14,0,0,1,2.5.11c7,1.9,8,9.9,13,12.9,3,3,4-5,7-7-1,6-1,16-6,16-6,1-6-12-14.3-13.64a2,2,0,0,0-1.34.3,1.57,1.57,0,0,0-.39,1.25c-.11,2.62-.27,5.18-.47,7.7q-1.25,20.72-1.79,41.54c0,1.28-.07,2.55-.11,3.83s-.24,2.67-.32,4-.16,2.67-.2,4c-4.08,17,9.92,41-4.93,53.63A12.67,12.67,0,0,1-188.46,204Z" transform="translate(599 177)"/><path class="cls-2" d="M-103.22,219.8c.22,2.2.22,4.2-2.78,5.2-2.14-13.57-4.8-27.14-5.83-41.07-.11-1.39-.2-2.79-.26-4.19C-112,171-112,162-112.78,153c0-1.05-.11-2.09-.16-3.13-.1-2.08-.21-4.15-.31-6.2,0-1-.11-2.06-.16-3.08C-113,140-114,139-114,139c-8,3-4,16-9,18-6,2-8-8-13-12.45-.91-.84-1.78-1.62-2.61-2.52a23.46,23.46,0,0,1-2.38-3c0,15,0,29,.15,44.22-.05,1.14-.13,2.28-.22,3.41-.68,7.93-2.52,15.55-6.93,22.37-7-13-8-28-8.58-42.35,0-1.57,0-2.93-.08-4.09s-.08-2.87-.08-5.18V146.71c0-2.1,0-4.21.09-6.35,0-1.07.06-2.15.11-3.23C-156,126-155,115-151.16,105.45a30.43,30.43,0,0,1,1.39-2.8,24.64,24.64,0,0,1,7.39-8.3,26.45,26.45,0,0,1,15.47-4.63q13.18,0,22.14,12.08a61.25,61.25,0,0,1,7.53,18.06,138.88,138.88,0,0,1,5,28.75c.08,1.24.16,2.49.23,3.76C-91,167-92,182-89,197a32.47,32.47,0,0,1-3.8-2.42c-12.2,2.42-5.2,17.42-9.9,23C-102.88,218.34-103,219.09-103.22,219.8Zm-23.9-81.52C-123,133-111,132-115.55,123.79c-.17-.84-.35-1.68-.55-2.52q-.89-3.76-2.1-7.53a28.88,28.88,0,0,0-8.4-12.88,4.15,4.15,0,0,0-2.51-.94,4.42,4.42,0,0,0-3,1.26,30,30,0,0,0-6.44,13.34c-.57,2.62-1.05,5.21-1.41,7.77-.12.86-.23,1.71-.33,2.56C-141,127-142,129-141,130a7.67,7.67,0,0,0,2.58,1,7.64,7.64,0,0,0,2.49.89c1.93,2.08,5.93,1.08,7,5.16A9.82,9.82,0,0,0-127.12,138.28Z" transform="translate(599 177)"/><path class="cls-2" d="M185,51.16a105.62,105.62,0,0,0,1.6,18.34A114.53,114.53,0,0,0,207,117.69a141.33,141.33,0,0,0,11,13.49c32.8,41,88,25.11,132.62,23a19.55,19.55,0,0,1,19.11,8.49C390,189.21,416.5,211.51,450,207.22c4.51-.3,9-.74,13.47-1.25,47.77-5.53,90.62-20.52,124-41.95q8.34-5.36,15.86-11.23c41.44-23,21.26-64.46-6.35-93.13C576.84,40.54,607.64,17.18,617.2-4.06c7.43-15.93,3.18-32.92-9.86-43A173.08,173.08,0,0,0,590.16-60c-42.95-28.44-102.28-46-167.82-46-6.2,0-12.35.16-18.38.6-21.45.46-39.5,11.08-52.24,28.07C330.48-49.72,309.24,4.44,277.39-3,271-5.12,270-18.92,263.58-26.36,247.65-41.22,222.17-37,210-18.92A117.86,117.86,0,0,0,201.18-6C190.74,11.72,185,31,185,51.16Z" transform="translate(599 177)"/><text class="cls-3" transform="translate(922.77 226.39)">Click <tspan x="0" y="80.4">aquí</tspan></text></svg>