<svg id="Capa_1" data-name="Capa 1" xmlns="http://www.w3.org/2000/svg" viewBox="0 0 165 105.56"><defs><style>.cls-1{fill:#936b9e;}.cls-2{fill:#fff;}</style></defs><title>Botón Inicio</title><path class="cls-1" d="M169,37.85c0,43.21-32.89,47.65-76.1,47.65S4,135.11,4,91.9,14.13,5.14,57.34,5.14,169-5.36,169,37.85Z" transform="translate(-4 -4.01)"/><path class="cls-2" d="M45.44,34.82V65.89H43.68V34.82Z" transform="translate(-4 -4.01)"/><path class="cls-2" d="M52.05,51.08V65.89H50.29V46.82h1.76v1.23a7.6,7.6,0,0,1,5.54-2.37,7.34,7.34,0,0,1,7.67,7.45V65.89H63.52V53.3a5.56,5.56,0,0,0-1.76-4.15,5.92,5.92,0,0,0-8.32,0A6.59,6.59,0,0,0,52.05,51.08Z" transform="translate(-4 -4.01)"/><path class="cls-2" d="M72.15,40.58a1.65,1.65,0,0,1,.51,1.21,1.74,1.74,0,0,1-3,1.25,1.66,1.66,0,0,1-.52-1.25,1.62,1.62,0,0,1,.52-1.21,1.74,1.74,0,0,1,2.46,0Zm-.37,6.24V65.89H70.05V46.82Z" transform="translate(-4 -4.01)"/><path class="cls-2" d="M93.05,61.3,94.9,62a13.78,13.78,0,0,1-1.14,1.32,10.67,10.67,0,0,1-18.22-7.54,10.68,10.68,0,0,1,18.22-7.53,12.57,12.57,0,0,1,1.14,1.31l-1.85.69c-.19-.24-.39-.47-.61-.71A8.56,8.56,0,0,0,86.2,47,8.81,8.81,0,0,0,80,62a8.79,8.79,0,0,0,12.45,0C92.66,61.76,92.86,61.53,93.05,61.3Z" transform="translate(-4 -4.01)"/><path class="cls-2" d="M100.75,40.58a1.62,1.62,0,0,1,.52,1.21,1.76,1.76,0,0,1-1.73,1.76A1.72,1.72,0,0,1,98.29,43a1.69,1.69,0,0,1-.51-1.25,1.65,1.65,0,0,1,.51-1.21,1.72,1.72,0,0,1,1.25-.51A1.66,1.66,0,0,1,100.75,40.58Zm-.36,6.24V65.89H98.66V46.82Z" transform="translate(-4 -4.01)"/><path class="cls-2" d="M115.25,45.11A10.64,10.64,0,0,1,125.9,55.78a10.65,10.65,0,1,1-10.65-10.67ZM109,49.54a8.5,8.5,0,0,0-2.59,6.24,8.82,8.82,0,0,0,17.63,0,8.8,8.8,0,0,0-15-6.24Z" transform="translate(-4 -4.01)"/></svg>