<svg id="Capa_1" data-name="Capa 1" xmlns="http://www.w3.org/2000/svg" viewBox="0 0 442 313.75"><defs><style>.cls-1{fill:#df90b6;}.cls-2{font-size:125px;font-family:Champagne&Limousines, "Champagne & Limousines";}</style></defs><title>Botón Click aquí</title><path class="cls-1" d="M-175,74.16a105.62,105.62,0,0,0,1.6,18.34A114.53,114.53,0,0,0-153,140.69a141.33,141.33,0,0,0,11,13.49c32.8,41,88,25.11,132.62,23a19.55,19.55,0,0,1,19.11,8.49C30,212.21,56.5,234.51,90,230.22c4.51-.3,9-.74,13.47-1.25,47.77-5.53,90.62-20.52,124-41.95q8.34-5.36,15.86-11.23c41.44-23,21.26-64.46-6.35-93.13-20.18-19.12,10.62-42.48,20.18-63.72,7.43-15.93,3.18-32.92-9.86-43A173.08,173.08,0,0,0,230.16-37C187.21-65.41,127.88-83,62.34-83c-6.2,0-12.35.16-18.38.6-21.45.46-39.5,11.08-52.24,28.07C-29.52-26.72-50.76,27.44-82.61,20-89,17.88-90,4.08-96.42-3.36-112.35-18.22-137.83-14-150,4.08A117.86,117.86,0,0,0-158.82,17C-169.26,34.72-175,54-175,74.16Z" transform="translate(175 83)"/><text class="cls-2" transform="translate(138.77 155.39)">Click <tspan x="0" y="80.4">aquí</tspan></text></svg>