<svg id="Capa_1" data-name="Capa 1" xmlns="http://www.w3.org/2000/svg" viewBox="0 0 221.09 149.96"><defs><style>.cls-1{fill:#0092a3;}.cls-2{fill:#fff;}</style></defs><title>Botón Escríbenos</title><path class="cls-1" d="M166.88,84.73c-8.27,7-12.9,16.28-15,18-2.2,2.75-1.85-2-3.25-.41-1.43-1-4.6,4.43-13.32,3.1-8.43-.53-22.42-7.78-38.83-15.54-16.24-5.66-25.27,5-31.51,13-6.18,8.65-9.59,14.71-13.17,13.44-7.29-1.29-14.66-33.77-44.16-65.24-15.07-13.62-25.95-25.4-30.82-38-5-12.3-3.9-25.42,2.94-34.31s19.5-13.75,37.9-11.78c18.5,1.43,42.76,9.6,75.18,14.19,32.86-.49,57.92,1.63,74.36,8.93,16.59,7,24.55,19.2,26.86,32s-1,26.22-6.27,36.33C182.42,69,175,76.15,166.88,84.73Z" transform="translate(26.23 33.38)"/><path class="cls-2" d="M21,3.82V5.58H7.22v12.9H21v1.76H7.22V33.13H21v1.76H5.46V3.82Z" transform="translate(26.23 33.38)"/><path class="cls-2" d="M30.58,24.65a14.14,14.14,0,0,1-3.08-2.06,4.57,4.57,0,0,1,0-6.47,4.35,4.35,0,0,1,3.23-1.36A4.24,4.24,0,0,1,33.87,16a3.79,3.79,0,0,1,1.21,2.77v.08l-1.52.62a3.79,3.79,0,0,0-.92-2.22,2.53,2.53,0,0,0-1.91-.75,2.83,2.83,0,0,0-2,4.84,12.77,12.77,0,0,0,2,1.49,15.34,15.34,0,0,1,3.54,2.4,5.67,5.67,0,0,1,0,8,5.65,5.65,0,0,1-8,0,5,5,0,0,1-1.64-3.63l1.73-.44A3.88,3.88,0,0,0,27.55,32a3.77,3.77,0,0,0,2.76,1.16,4,4,0,0,0,3.94-4,3.68,3.68,0,0,0-1.17-2.74A17,17,0,0,0,30.58,24.65Z" transform="translate(26.23 33.38)"/><path class="cls-2" d="M56.26,30.3l1.85.68A12.62,12.62,0,0,1,57,32.3a10.63,10.63,0,0,1-15.08,0,10.28,10.28,0,0,1-3.13-7.55A10.67,10.67,0,0,1,49.41,14.11,10.27,10.27,0,0,1,57,17.23a11.6,11.6,0,0,1,1.15,1.31l-1.85.69c-.19-.24-.39-.47-.61-.71A8.56,8.56,0,0,0,49.41,16a8.81,8.81,0,0,0-8.79,8.81,8.8,8.8,0,0,0,15,6.22C55.87,30.76,56.07,30.53,56.26,30.3Z" transform="translate(26.23 33.38)"/><path class="cls-2" d="M68.17,17.36a6.31,6.31,0,0,0-3.67,2.37A6.47,6.47,0,0,0,62.7,24V34.89H60.94V15.82H62.7V20a7.54,7.54,0,0,1,4.5-4.28Z" transform="translate(26.23 33.38)"/><path class="cls-2" d="M75.93,8.15l-4.77,3.63H69.53L72.7,8.15Zm-3.41,7.67V34.89H70.79V15.82Z" transform="translate(26.23 33.38)"/><path class="cls-2" d="M77.31,3.82h1.76V18.5a10.75,10.75,0,0,1,1.1-1.27,10.66,10.66,0,0,1,18.19,7.55,10.29,10.29,0,0,1-3.12,7.53,10.62,10.62,0,0,1-15.07,0A10.83,10.83,0,0,1,79.07,31v3.87H77.31ZM79.07,23v3.65A8.29,8.29,0,0,0,81.46,31a8.82,8.82,0,0,0,15.06-6.2,8.82,8.82,0,0,0-15.06-6.24A8.43,8.43,0,0,0,79.07,23Z" transform="translate(26.23 33.38)"/><path class="cls-2" d="M103,23.8a7.47,7.47,0,0,0-.06,1A8.81,8.81,0,0,0,118,31a12.09,12.09,0,0,0,.83-.92l1.87.66a9.77,9.77,0,0,1-1.38,1.58,10.67,10.67,0,0,1-18.22-7.52,10.68,10.68,0,0,1,18.22-7.55,9,9,0,0,1,2.74,6.57Zm.33-1.78h16.74A8.32,8.32,0,0,0,118,18.54a8.81,8.81,0,0,0-12.48,0A9,9,0,0,0,103.37,22Z" transform="translate(26.23 33.38)"/><path class="cls-2" d="M126.82,20.08V34.89h-1.76V15.82h1.76v1.23a7.57,7.57,0,0,1,5.53-2.37A7.32,7.32,0,0,1,140,22.13V34.89h-1.73V22.3a5.59,5.59,0,0,0-1.76-4.15,5.93,5.93,0,0,0-8.33,0A6.37,6.37,0,0,0,126.82,20.08Z" transform="translate(26.23 33.38)"/><path class="cls-2" d="M154.44,14.11a10.64,10.64,0,0,1,10.65,10.67A10.28,10.28,0,0,1,162,32.31a10.63,10.63,0,0,1-15.07,0,10.26,10.26,0,0,1-3.13-7.53,10.67,10.67,0,0,1,10.66-10.67Zm-6.23,4.43a8.49,8.49,0,0,0-2.58,6.24,8.81,8.81,0,0,0,17.62,0,8.8,8.8,0,0,0-15-6.24Z" transform="translate(26.23 33.38)"/><path class="cls-2" d="M173.79,24.65a14,14,0,0,1-3.07-2.06,4.57,4.57,0,0,1,0-6.47A4.35,4.35,0,0,1,174,14.76,4.25,4.25,0,0,1,177.09,16a3.83,3.83,0,0,1,1.21,2.77v.08l-1.52.62a3.86,3.86,0,0,0-.92-2.22,2.53,2.53,0,0,0-1.91-.75,2.87,2.87,0,0,0-2.84,2.84,2.74,2.74,0,0,0,.84,2,12.77,12.77,0,0,0,2,1.49,15.34,15.34,0,0,1,3.54,2.4,5.67,5.67,0,0,1,0,8,5.65,5.65,0,0,1-8,0,5,5,0,0,1-1.65-3.63l1.74-.44A3.85,3.85,0,0,0,170.77,32a3.77,3.77,0,0,0,2.76,1.16,4,4,0,0,0,3.93-4,3.71,3.71,0,0,0-1.16-2.74A17.25,17.25,0,0,0,173.79,24.65Z" transform="translate(26.23 33.38)"/></svg>