<svg id="Capa_1" data-name="Capa 1" xmlns="http://www.w3.org/2000/svg" viewBox="0 0 217 131.01"><defs><style>.cls-1{fill:#0092a3;}.cls-2{fill:#fff;}</style></defs><title>Botón Nuestros servicios</title><path class="cls-1" d="M218,35c0,54.57-20.16,75-74.73,75S29.09,111.87,29.09,57.3-30.57-21,24-21,218-19.57,218,35Z" transform="translate(-1 21)"/><path class="cls-2" d="M55.48,14.82,76.13,43.76V14.82h1.76V45.89h-2.7L55,17.63V45.89H53.26V14.82Z" transform="translate(-1 21)"/><path class="cls-2" d="M90.06,46.16a7.73,7.73,0,0,1-5.69-2.11,7.48,7.48,0,0,1-2.17-5.34V26.8H84V38.55a5.57,5.57,0,0,0,1.76,4.13A5.87,5.87,0,0,0,90,44.42a5.75,5.75,0,0,0,4.17-1.73A5.62,5.62,0,0,0,96,38.55V26.8h1.76V38.71a7.34,7.34,0,0,1-7.65,7.45Z" transform="translate(-1 21)"/><path class="cls-2" d="M102.68,34.8a6,6,0,0,0-.07,1,8.81,8.81,0,0,0,15,6.2c.29-.29.57-.6.84-.92l1.86.66A9.77,9.77,0,0,1,119,43.3a10.67,10.67,0,0,1-18.22-7.52A10.68,10.68,0,0,1,119,28.23a9,9,0,0,1,2.75,6.57ZM103,33h16.75a8.34,8.34,0,0,0-2.09-3.48,8.81,8.81,0,0,0-12.48,0A9,9,0,0,0,103,33Z" transform="translate(-1 21)"/><path class="cls-2" d="M129.64,35.65a14.14,14.14,0,0,1-3.08-2.06,4.57,4.57,0,0,1,0-6.47,4.35,4.35,0,0,1,3.23-1.36A4.24,4.24,0,0,1,132.93,27a3.79,3.79,0,0,1,1.21,2.77v.08l-1.52.62a3.86,3.86,0,0,0-.92-2.22,2.53,2.53,0,0,0-1.91-.75,2.84,2.84,0,0,0-2,4.84,12.77,12.77,0,0,0,2,1.49,15.34,15.34,0,0,1,3.54,2.4,5.66,5.66,0,1,1-8,8,5,5,0,0,1-1.65-3.63l1.74-.44A3.88,3.88,0,0,0,126.61,43a3.77,3.77,0,0,0,2.76,1.16,4,4,0,0,0,3.93-4,3.67,3.67,0,0,0-1.16-2.74A17,17,0,0,0,129.64,35.65Z" transform="translate(-1 21)"/><path class="cls-2" d="M141.26,26.82V18.71H143v8.11h3.88v1.76H143V45.89h-1.74V28.58h-3.89V26.82Z" transform="translate(-1 21)"/><path class="cls-2" d="M156.51,28.36a6.28,6.28,0,0,0-3.67,2.37A6.47,6.47,0,0,0,151,35V45.89h-1.76V26.82H151V31a7.54,7.54,0,0,1,4.5-4.28Z" transform="translate(-1 21)"/><path class="cls-2" d="M168.75,25.11A10.64,10.64,0,0,1,179.4,35.78a10.66,10.66,0,1,1-18.18-7.55A10.29,10.29,0,0,1,168.75,25.11Zm-6.23,4.43a8.53,8.53,0,0,0-2.58,6.24,8.81,8.81,0,0,0,17.62,0,8.8,8.8,0,0,0-15-6.24Z" transform="translate(-1 21)"/><path class="cls-2" d="M188.11,35.65A14.14,14.14,0,0,1,185,33.59a4.57,4.57,0,0,1,0-6.47,4.35,4.35,0,0,1,3.23-1.36A4.24,4.24,0,0,1,191.4,27a3.79,3.79,0,0,1,1.21,2.77v.08l-1.52.62a3.86,3.86,0,0,0-.92-2.22,2.53,2.53,0,0,0-1.91-.75,2.83,2.83,0,0,0-2,4.84,12.77,12.77,0,0,0,2,1.49,15.34,15.34,0,0,1,3.54,2.4,5.66,5.66,0,1,1-8,8,5,5,0,0,1-1.65-3.63l1.74-.44A3.85,3.85,0,0,0,185.08,43a3.77,3.77,0,0,0,2.76,1.16,4,4,0,0,0,3.93-4,3.67,3.67,0,0,0-1.16-2.74A17,17,0,0,0,188.11,35.65Z" transform="translate(-1 21)"/><path class="cls-2" d="M60.27,67.65a14.14,14.14,0,0,1-3.08-2.06,4.57,4.57,0,0,1,0-6.47,4.37,4.37,0,0,1,3.23-1.36A4.24,4.24,0,0,1,63.56,59a3.79,3.79,0,0,1,1.21,2.77v.08l-1.51.62a3.86,3.86,0,0,0-.93-2.22,2.53,2.53,0,0,0-1.91-.75,2.85,2.85,0,0,0-2.83,2.84,2.77,2.77,0,0,0,.83,2,13,13,0,0,0,2,1.49A15.46,15.46,0,0,1,64,68.25a5.65,5.65,0,1,1-8,8,5,5,0,0,1-1.65-3.63l1.73-.44A3.85,3.85,0,0,0,57.25,75a3.93,3.93,0,0,0,6.69-2.8,3.68,3.68,0,0,0-1.17-2.74A17,17,0,0,0,60.27,67.65Z" transform="translate(-1 21)"/><path class="cls-2" d="M70.35,66.79a7.74,7.74,0,0,0-.06,1,8.81,8.81,0,0,0,15,6.2,12.09,12.09,0,0,0,.83-.92l1.87.66a9.77,9.77,0,0,1-1.38,1.58A10.66,10.66,0,1,1,71.57,60.23a10.68,10.68,0,0,1,15.09,0,9,9,0,0,1,2.74,6.56ZM70.68,65H87.43a8.34,8.34,0,0,0-2.09-3.48,8.81,8.81,0,0,0-12.48,0A9,9,0,0,0,70.68,65Z" transform="translate(-1 21)"/><path class="cls-2" d="M99.12,60.36a6.28,6.28,0,0,0-3.67,2.37A6.48,6.48,0,0,0,93.64,67V77.89H91.89V58.82h1.75V63a7.59,7.59,0,0,1,4.51-4.28Z" transform="translate(-1 21)"/><path class="cls-2" d="M118.65,58.82l-8.53,19.07h-.92l-8.44-19.07h2l6.85,15.89,7-15.89Z" transform="translate(-1 21)"/><path class="cls-2" d="M123.36,52.58a1.62,1.62,0,0,1,.52,1.21,1.76,1.76,0,0,1-1.74,1.76,1.76,1.76,0,0,1-1.76-1.76,1.66,1.66,0,0,1,.52-1.21,1.71,1.71,0,0,1,1.24-.51A1.67,1.67,0,0,1,123.36,52.58ZM123,58.82V77.89h-1.74V58.82Z" transform="translate(-1 21)"/><path class="cls-2" d="M144.27,73.3l1.85.68A12.62,12.62,0,0,1,145,75.3a10.66,10.66,0,1,1-15.08-15.07,10.67,10.67,0,0,1,15.08,0,11.6,11.6,0,0,1,1.15,1.31l-1.85.68c-.19-.23-.4-.46-.62-.7a8.82,8.82,0,1,0,0,12.46C143.87,73.76,144.08,73.53,144.27,73.3Z" transform="translate(-1 21)"/><path class="cls-2" d="M152,52.58a1.66,1.66,0,0,1,.52,1.21A1.7,1.7,0,0,1,152,55a1.67,1.67,0,0,1-1.22.51A1.76,1.76,0,0,1,149,53.79a1.66,1.66,0,0,1,.52-1.21,1.7,1.7,0,0,1,1.24-.51A1.67,1.67,0,0,1,152,52.58Zm-.36,6.24V77.89h-1.74V58.82Z" transform="translate(-1 21)"/><path class="cls-2" d="M166.46,57.11A10.67,10.67,0,0,1,174,75.31a10.66,10.66,0,1,1-15.07-15.08A10.25,10.25,0,0,1,166.46,57.11Zm-6.23,4.43a8.53,8.53,0,0,0-2.58,6.24,8.81,8.81,0,0,0,17.62,0,8.8,8.8,0,0,0-15-6.24Z" transform="translate(-1 21)"/><path class="cls-2" d="M185.82,67.65a14.14,14.14,0,0,1-3.08-2.06,4.57,4.57,0,0,1,0-6.47A4.37,4.37,0,0,1,186,57.76,4.27,4.27,0,0,1,189.12,59a3.82,3.82,0,0,1,1.2,2.77v.08l-1.51.62a3.8,3.8,0,0,0-.93-2.22,2.53,2.53,0,0,0-1.91-.75,2.85,2.85,0,0,0-2.83,2.84,2.77,2.77,0,0,0,.83,2A13.52,13.52,0,0,0,186,65.85a15.46,15.46,0,0,1,3.53,2.4,5.65,5.65,0,1,1-8,8,5,5,0,0,1-1.65-3.63l1.73-.44A3.85,3.85,0,0,0,182.8,75a3.93,3.93,0,0,0,6.69-2.8,3.68,3.68,0,0,0-1.17-2.74A17,17,0,0,0,185.82,67.65Z" transform="translate(-1 21)"/></svg>