<svg id="Capa_1" data-name="Capa 1" xmlns="http://www.w3.org/2000/svg" viewBox="0 0 536 340"><defs><style>.cls-1{fill:#0092a3;}.cls-2{fill:#fff;}</style></defs><title>Botón Banner Nuestros servicios</title><path class="cls-1" d="M-205.84,45.93a78.51,78.51,0,0,0,1,17.84,119.13,119.13,0,0,0,3.78,16.37C-184,142.49-122.92,182-61.79,191.93-4,200.72,51.58,193,110.49,206.21a145,145,0,0,0,82.91-5.15c5.51-1.77,10.86-3.72,16.07-5.8a304.76,304.76,0,0,0,29.77-13.81,123.76,123.76,0,0,0,18.39-11.59c21.79-16.39,26.24-47.15,36.24-71.32C302.76,81,315,64.48,323.88,46.9c10-22,7.78-49.45-6.95-69.53A158,158,0,0,0,305.46-38c-46.11-54.8-136-92-239.43-92A408.07,408.07,0,0,0-27.6-119.33q-6.25,1.47-12.36,3.15c-39.61,3.76-57.39,38.92-50.72,76.28,2.22,7.69-3.34,15.38-10,19.77C-134-.35-180.71-6.94-201,29.21A41.44,41.44,0,0,0-205.84,45.93Z" transform="translate(206 130)"/><path class="cls-2" d="M-76,50.83c-8-9.83-7.13-23.78-8.08-36.46-.08-1.19-.16-2.35-.23-3.48q-.58-10.2-.59-23,0-14.19,1.18-29.85.3-4,4.24-4a20.51,20.51,0,0,1,5.71.79,19.21,19.21,0,0,0,5.42.79,4.6,4.6,0,0,1,4.43,3q2,5.32,3.65,10.74c.33,1.05.65,2.1,1,3.15q4.05,12.07,7.88,24.21c.36,1.16.73,2.31,1.09,3.47,1.66,4,1.66,8.89,4.13,13A176,176,0,0,1-44.57-7.14c.17-1.43.33-2.8.48-4.12s.31-2.59.46-3.81q.43-3.64,1.13-9.16c.2-1.44.39-3.05.59-4.83.13-1,.26-1.93.4-2.85l.39-2.56a3.16,3.16,0,0,1,1.87-2.32,7.55,7.55,0,0,1,3-.64,8.09,8.09,0,0,1,3.26.69,2.23,2.23,0,0,1,1.57,2.07l-.1.88Q-33.61-19.64-35-5.89c-.14,1.31-.26,2.62-.39,3.93-2.54,17.51,3.21,34.75-3.36,51.17C-42,38.54-51.08,31.15-53.85,19.27c-.38-1-.75-2-1.11-3-.71-2-1.39-4.05-2-6.08Q-62.31-6.69-67.72-23.44v-.1a2.29,2.29,0,0,0-.49-1c-.07.86-.13,1.71-.2,2.57-.19,1.83-.33,3.64-.39,5.41-.26,5-.49,9.13-.69,12.42-.08,1.31-.16,2.58-.23,3.81s-.13,2.43-.19,3.58c0,13.11-3.33,25.43,0,39.38.82,4.11.82,8.21-1.64,11.49a10,10,0,0,0-2.2-.84A16.63,16.63,0,0,1-76,50.83Z" transform="translate(206 130)"/><path class="cls-2" d="M-8,38.2a12.53,12.53,0,0,0-1.48,2.31c-2,4-2,8.56-5.43,12C-25.63,33.61-27.27,9-26-12.09c.05-1.2.11-2.4.18-3.59.21-3.6.53-7.2,1-10.82a3.59,3.59,0,0,1,2.81-2.95A17.41,17.41,0,0,1-17.68-30a15.56,15.56,0,0,1,4.73.74A3.13,3.13,0,0,1-10.58-26a45,45,0,0,1-.79,6c-.14.78-.27,1.61-.4,2.46-.14,1.13-.27,2.25-.39,3.38s-.23,2.27-.32,3.41c0,13.16-4.94,27.11,4.09,39.43,0,.82,2.45-2.26,3.88.08,1-.08,1,.74,1.86.74C2.28,18,1.46,4.88,3.74-7.82c.11-1.54.21-3.07.3-4.6.17-3.06.28-6.15.35-9.25.06-1.51.13-3,.2-4.53a2.13,2.13,0,0,1,1.47-2.27,7.11,7.11,0,0,1,3.35-.88,7.46,7.46,0,0,1,3.25.74,2.57,2.57,0,0,1,1.58,2.51c-.07,2.1-.13,4-.2,5.71q-.3,7.4-.64,12.51-.09,1.29-.21,2.79c-.08,1-.17,2.1-.27,3.26-3.25,15.74.85,37.08-10.64,47.76-1.64.82-4.11-6.57-7.89-8.55A3.86,3.86,0,0,0-8,38.2Z" transform="translate(206 130)"/><path class="cls-2" d="M36.81,43.25c-.05,3.5-4.16,6-6.62,3.5-4.11-7.39-8.21-14-10.58-21.11-.3-.83-.57-1.65-.8-2.49a31,31,0,0,1-1-8.08A58.75,58.75,0,0,1,22.12-8.57,28.54,28.54,0,0,1,30-19a17.6,17.6,0,0,1,11.52-4.14,17.75,17.75,0,0,1,4.14.5,11.15,11.15,0,0,1,7.44,5.27,17,17,0,0,1,2.41,8.81,22,22,0,0,1-.19,2.93,22,22,0,0,1-.6,2.88c-.73,6-4,10.1-8.07,14.34a24.76,24.76,0,0,1-2,1.69,21.1,21.1,0,0,1-2.19,1.43c-.75.44-1.53.83-2.34,1.21C31,18,28.55,26.22,34.29,33.61c2.47,2.47,4.11-.82,6-3.85a34.68,34.68,0,0,0,3.31-3.36,18.25,18.25,0,0,0,2.42-3.81c.55-.47.55-2.11,1.37-2.11,4.92-.82,8.21,5.74,8.21,9.85-.82,7.39-4.93,5.75-10.67,4.15a12.71,12.71,0,0,0-4.43,2.35,10.42,10.42,0,0,0-1.95,2.77C38,40.74,37.4,42,36.81,43.25ZM32.07,13.59c1.4-1.32,3.86-2.14,5.62-4.11A21,21,0,0,0,40,7.14a19.87,19.87,0,0,0,2-2.8A27.61,27.61,0,0,0,45.66-9a10.33,10.33,0,0,0-.79-4,3.06,3.06,0,0,0-3.15-1.92,3.13,3.13,0,0,0-2,.69A19.49,19.49,0,0,0,33-2.76c-.26,1.19-.5,2.37-.72,3.56.42,4.08-2.86,9-.65,13Z" transform="translate(206 130)"/><path class="cls-2" d="M80.69,50.49c-4.53,1.18-4.53-2.92-5.35-5.38-2.47-4.93-5.75-9-9-13.14,0-.82.82-4.1,4.92-2.46,3.29,2.46,4.11,9,6.57,9.85,5.47.55,7.3-4,8.15-8.82.21-1.2.36-2.42.5-3.57a27.33,27.33,0,0,0,.31-3.6c0-1.19,0-2.37-.11-3.48A7.19,7.19,0,0,0,84.78,17C81.42,13.77,75,12.39,71,9.36a30.8,30.8,0,0,1-2.73-1.48,27.35,27.35,0,0,1-2.47-1.67c-1.93-3-6.86-4.61-6.9-8.52A14.42,14.42,0,0,1,58-7.39a18,18,0,0,1,1.28-6.4,22.44,22.44,0,0,1,9-11.33,25.19,25.19,0,0,1,13.59-3.74,18.87,18.87,0,0,1,3.7.34c12,4.67,21.84,24.37,11.17,35C95,4.88,92.58,3.24,91.76.78c0-8.21,0-18.06-7.74-22.87a7,7,0,0,0-3.91,1A12.47,12.47,0,0,0,76.59-18a13.73,13.73,0,0,0-3.35,8.62q0,5.24,5.42,9.17A31.8,31.8,0,0,0,82.8,2.27c9.78,10,24.55,22.31,18.33,37a15.69,15.69,0,0,1-2,3.38c-.61.62-1.18.36-1.78-.32s-1.24-1.81-2-2.91a9.27,9.27,0,0,0-2.79-2.82,4.34,4.34,0,0,0-4.1-.09A12.61,12.61,0,0,0,86,39.24a24.87,24.87,0,0,0-3.21,7C82.11,47.75,81.41,49.19,80.69,50.49Z" transform="translate(206 130)"/><path class="cls-2" d="M119.83,53.17c-6.73-14.63-7.55-30.23-6.73-45.88,0-1,.05-2,.09-3.08,0-1.53.11-3.07.18-4.61,2.19-7.85-1.09-16.06,1.37-24.27a14.45,14.45,0,0,0-4.13.09c-1.46.19-3,.47-4.28.63s-3.9.92-4.72-1.54a7,7,0,0,1,1.24-3,6.4,6.4,0,0,1,3-1.05c2.42-.34,5.41-.19,7.7-.31l3.15-.23q7.73-.47,15.53-.47l3.35.09a8.17,8.17,0,0,1,3.2.69c1.08.46,1.62,1.09,1.62,1.88a2.07,2.07,0,0,1-1.28,1.72,5.61,5.61,0,0,1-2.85.74l-8.87.2a1.41,1.41,0,0,0-.84.19,1,1,0,0,0-.24.79q-.11,2.46-.3,4.83c-.25,4.13-.46,8.28-.64,12.42l-.18,4.16c-3.09,18.37,3.48,38.07-1.86,56.48C122,56.06,120.86,55.56,119.83,53.17Z" transform="translate(206 130)"/><path class="cls-2" d="M150.28,51.68C142.65,38.54,141,24.58,141.23,10c0-1.26,0-2.51,0-3.76H141a252,252,0,0,1,2.76-36.15,5.46,5.46,0,0,1,3.94-4.63,14.16,14.16,0,0,1,3.7-1.09,31.25,31.25,0,0,1,3.69-.19h1a47,47,0,0,1,8.32.73,30.82,30.82,0,0,1,4.05,1,33.26,33.26,0,0,1,4,1.58c12.08,7.84,9.61,24.26,11.26,36.57.82,6.57-4.11,7.39-9.86,5.75-1.64-.82-2.46,2.46-2.46,4.1.82,9,9.85,17.24,4.93,26.27a13,13,0,0,1-2.73-2.77c-3.73-5.08-3.84-12.17-7.94-17.12l-1.43-2.49a24.82,24.82,0,0,1-2.68-3.89c-14.77,11.49,0,32-7.39,47.61-.82-2.46-3.28-4.1-2.93-7Q150.76,53.08,150.28,51.68Zm5.32-40c2.65-1.89,5.93-4.36,8.69-6a22.93,22.93,0,0,0,2.61-1.76,24,24,0,0,0,2.39-2.13,35.43,35.43,0,0,0,2.08-3.14c4.12-6.07,2.47-11.82,1.68-17.55A18.29,18.29,0,0,0,171.88-22a18.16,18.16,0,0,0-1.61-2.65q-3.65-5-10.84-5.86c-.39,0-.59.16-.59.49l.1.29.1,1.28a16.83,16.83,0,0,1-.3,3.16q-.48,3.45-1,7-.27,1.8-.51,3.6c-.16,1.19-.31,2.39-.45,3.59-.19,7-1.84,15.19-1.8,22.33C155,11.79,155.21,12,155.6,11.7Z" transform="translate(206 130)"/><path class="cls-2" d="M208.48,39.1c-1,2.72-1.8,5.18-2.82,7.5a23.26,23.26,0,0,1-.74,2.54,8.17,8.17,0,0,1-3.17,4.17c-.54-1.3-1.11-2.6-1.7-3.9s-1.18-2.6-1.77-3.91c-5.56-10.25-8.84-20.92-11.33-32.43-.16-1.42-.25-2.86-.28-4.31a43.19,43.19,0,0,1,.14-4.39c.14-1.48.34-2.95.59-4.43a79.14,79.14,0,0,1,7.1-21,25,25,0,0,1,2.51-2.8A18.87,18.87,0,0,1,210.56-29,18.75,18.75,0,0,1,218.78-27a18.65,18.65,0,0,1,6.95,6,31.71,31.71,0,0,1,5,11.08c.24,1,.44,2,.59,3C228,9,226.38,29.51,211,36.71A13,13,0,0,0,208.48,39.1Zm.68-8.89A7.57,7.57,0,0,0,213.22,28a27.76,27.76,0,0,0,3.64-4.53,47,47,0,0,0,5.52-22.07,46.56,46.56,0,0,0-1.72-12.21,24.14,24.14,0,0,0-6.06-10.74,3.31,3.31,0,0,0-2.47-1.38,7.22,7.22,0,0,0-4,1.77,16.4,16.4,0,0,0-5.62,9.46A56,56,0,0,0,201.22-6c-.17,1-.31,2.06-.44,3.13-1.49,11-.67,23.33,4.87,33.32C206.58,31.28,207.7,31,209.16,30.21Z" transform="translate(206 130)"/><path class="cls-2" d="M257.25,37.05c-5.42.67-9.53,5.59-15.27,5.59-2.46-.82-4.11-6.56-.82-7.39,6.56-.82,12.31-3.28,18.39-4.95a4.48,4.48,0,0,0,2.56-.79c5.32-4.11,2-10.67-2-14.24-.79-.52-1.59-1-2.42-1.45-5-3.19-11.61-4-16.13-8.07A19.93,19.93,0,0,1,238.82,3a14.9,14.9,0,0,1-3.66-10.37,18.07,18.07,0,0,1,.35-3.12,19.78,19.78,0,0,1,1-3.28,22.42,22.42,0,0,1,9-11.33A25.24,25.24,0,0,1,259-28.86a20.79,20.79,0,0,1,7.06,1.17,19,19,0,0,1,3.13,1.46c7.25,5.66,13,20.44,4,23.72-4.92,1.65-5.74-7.38-6.07-14a14,14,0,0,0-2.36-4,4.5,4.5,0,0,0-3.55-1.57q-4,0-7.39,4.18a13.73,13.73,0,0,0-3.35,8.62q0,5.24,5.42,9.17A31.8,31.8,0,0,0,260,2.27c.65.33,1.31.69,2,1.09,8.73,8.09,22.68,28.61,9.55,38.46-3.28,2.46-3.28-4.1-6.69-3.59a10.69,10.69,0,0,0-3.16-1.42A17.29,17.29,0,0,0,257.25,37.05Z" transform="translate(206 130)"/><path class="cls-2" d="M-68.39,136.55c-.75,2.14-4,3.78-5.67,3-4.11-3.29-7.39-8.21-4.93-14.78,5.75,10.67,14.78,3.29,18.88-4.1,5.75-9.85-8.21-13.14-15-17.36a30.6,30.6,0,0,1-2.72-1.48,26.31,26.31,0,0,1-6.63-5.61,14.65,14.65,0,0,1-3.65-9.66,18,18,0,0,1,1.28-6.4,22.44,22.44,0,0,1,9-11.33,25.19,25.19,0,0,1,13.59-3.74,19.39,19.39,0,0,1,13,4.68A14.94,14.94,0,0,1-45.75,81.6a22.48,22.48,0,0,1-.3,3.55A3.28,3.28,0,0,1-48,87.71a7.6,7.6,0,0,1-3.4.78,8,8,0,0,1-3.05-.64c-1-.42-1.58-1-1.58-1.82.07-.46.14-.85.2-1.18a14.73,14.73,0,0,0,.3-1.53,13.28,13.28,0,0,0,.1-1.62,13,13,0,0,0-3.16-8.38,4.49,4.49,0,0,0-3.54-1.57c-2.7,0-5.16,1.39-7.39,4.19a13.68,13.68,0,0,0-3.35,8.61q0,5.24,5.42,9.17a31.8,31.8,0,0,0,4.14,2.46c.65.33,1.31.69,2,1.08a31.91,31.91,0,0,1,3.76,2.25c13,8.8,18.78,33.43,4.83,40.82-1.23.61.31-5.23-3.32-8.27a7.94,7.94,0,0,0-2.48-1c-2.41.26-4.87.26-6.69,1.94A25.89,25.89,0,0,0-68.39,136.55Z" transform="translate(206 130)"/><path class="cls-2" d="M-23.52,140c-2.11,1.94-2.11,7.69-3.75,5.22-9-11.49-17.24-24.62-15.46-40.26.09-1.46.22-2.91.35-4.3s.27-2.71.38-4,.52-2.62.84-3.9a55.77,55.77,0,0,1,2.5-7.49A28.54,28.54,0,0,1-30.78,74.9,17.59,17.59,0,0,1-22.41,71a19.16,19.16,0,0,1,3.16-.26c1.73.31,3.42.46,5,.85,14.09,8.79,10,31,.95,41.63-4.1-3.28-9-3.28-12.84.21a9.25,9.25,0,0,0-1.8,3,11.58,11.58,0,0,0,3.15,12.37c1.64.82,2.87-.42,4.07-2.3,1.68-2.63,3.32-5.91,5.78-5.91,7.39-1.64,11.49,6.56,12.31,13.13-5.74,0-12.31-9-17-2.65a13.92,13.92,0,0,0-2.18,4.34C-22.37,136.87-22.95,138.43-23.52,140ZM-28.4,108.2c1-.76,1.88-1.54,2.77-2.31,9-4.14,12.31-14,9.85-23a4.55,4.55,0,0,0-8.74.59,19,19,0,0,0-2.36,4.39,21.2,21.2,0,0,0-.94,3.3c-1.1,5.67-2.74,11.42-1,17.35Z" transform="translate(206 130)"/><path class="cls-2" d="M11.6,146.61c-.29,1.93-1.93,4.39-1.93,3.57a50.41,50.41,0,0,1-8-20.61c-.24-1.44-.44-2.89-.61-4.37-3.74-16.07-1.27-33.3.21-50.1.13-1.27.27-2.51.42-3.75q.43-3.7,1-7.38a5.46,5.46,0,0,1,3.94-4.63,14.16,14.16,0,0,1,3.7-1.09A31.25,31.25,0,0,1,14,58.06h1a47,47,0,0,1,8.32.73,32.23,32.23,0,0,1,8,2.62,19.38,19.38,0,0,1,2.79,1.7c10,11.55,12.44,29.61,3.41,41.92-1.65,3.28-2.47-6.57-5.75,0-3.28,7.39,4.93,16.42,5.75,25.45,0,2.46-2.47,6.56-5.75,4.1a27.91,27.91,0,0,1-2.09-3.75c-2.94-6.34-3.46-13.05-6.58-19.07-.5-.91-1-1.82-1.53-2.78-.27-.52-.56-1-.89-1.57-.13-.33-.33-.49-.59-.49a9.24,9.24,0,0,0-1.48.29,15.44,15.44,0,0,1-3.25.3h-.89a1.27,1.27,0,0,0-.64.1c-.1.06-.14.26-.14.59-.07,1.26-.13,2.52-.18,3.79s-.09,2.54-.13,3.81c-2.13,8.93,3.61,18-.91,26.58C12.23,143.91,11.92,145.33,11.6,146.61Zm3.13-44.23a8.74,8.74,0,0,0,2.56-.39,23.52,23.52,0,0,0,8.55-4.17,24,24,0,0,0,2.39-2.13,27,27,0,0,0,2.07-3.22c4-4.68,2.35-12.07,1.69-17.54a19.57,19.57,0,0,0-1.17-3,18.16,18.16,0,0,0-1.61-2.65q-3.64-5-10.83-5.86c-.4,0-.6.16-.6.49l.1.29.1,1.28a17.69,17.69,0,0,1-.29,3.16q-.5,3.45-1,7Q15.62,82.79,15,90c-.2,2.17-.37,4.3-.5,6.41-.13,1.77-.26,3.58-.39,5.41A.52.52,0,0,0,14.73,102.38Z" transform="translate(206 130)"/><path class="cls-2" d="M65.5,133.13c-3.3,2.27-4.94,11.3-6.58,8.84-8.21-12.31-5.75-27.91-9-42.84-.36-1.58-.71-3.14-1-4.71C46.19,81.88,44.8,69,49.4,57.56a11.92,11.92,0,0,1,4.54-1,10.69,10.69,0,0,1,3.54.59,3.85,3.85,0,0,1,2.37,2.46,84.59,84.59,0,0,1,1.28,8.87Q62.5,81.25,64.56,94l.6,3.65a62,62,0,0,0,2.6,14c.4-1.54.78-3,1.13-4.46Q71.44,96.47,72.8,90q1.62-7.72,3.3-17.19,1-5.11,2.36-12.21a2.07,2.07,0,0,1,1.19-1.38,7.2,7.2,0,0,1,3.54-1,8.48,8.48,0,0,1,3.25.69,2.29,2.29,0,0,1,1.68,2.17l-.1,1q-.3,1.57-.69,3.15c-.72,3.15-1.35,6.34-1.87,9.55q-4,23.25-10.25,46.1a55.08,55.08,0,0,1-2.16,6.8A5.68,5.68,0,0,1,70,130.51a17.9,17.9,0,0,0-2.13.88A9.59,9.59,0,0,0,65.5,133.13Z" transform="translate(206 130)"/><path class="cls-2" d="M98.24,143.52A25.72,25.72,0,0,1,95,151c-4.11-21.34-.82-42.69-3.24-63.85,0-1.44,0-2.87,0-4.32q0-6.49,0-13.15A3.05,3.05,0,0,1,94,66.48a13,13,0,0,1,4.09-.74,12.52,12.52,0,0,1,4.33.79,2.21,2.21,0,0,1,1.67,1.82,15.1,15.1,0,0,1,.3,3.1q-.39,16.76-.69,24.14-.08,3.91-.18,8.41c0,1,0,2-.07,3.07-1,10.27,1.46,21.77-3.69,31.86A36.33,36.33,0,0,0,98.24,143.52Z" transform="translate(206 130)"/><path class="cls-2" d="M130.85,132.69c-3.8,2.71-3.8,14.21-7.08,10.1-12.31-13.95-13.13-33.66-12.88-51.92.11-1.13.24-2.26.4-3.41s.35-2.29.57-3.45A47.4,47.4,0,0,1,116,71.35a19.34,19.34,0,0,1,7.14-7.83,18.64,18.64,0,0,1,9.71-2.61,15.74,15.74,0,0,1,12.51,5.77,20.87,20.87,0,0,1,4.92,14,9.62,9.62,0,0,1-.34,2.61,3.06,3.06,0,0,1-1.73,1.92,6.72,6.72,0,0,1-3,.79,6,6,0,0,1-3.1-.84,2.78,2.78,0,0,1-1.43-2.61v-1a23,23,0,0,0-1.87-9.16.69.69,0,0,1-.1-.3c-.33-.79-.71-1.57-1.13-2.36s-.91-1.18-1.43-1.18l-.49.19a15.41,15.41,0,0,0-6.06,6.75,38.37,38.37,0,0,0-2.91,8.52q-.34,1.6-.63,3.27c-.19,1.11-.36,2.24-.52,3.39-1.71,10.21-.89,20.06.75,29.91.82,2.46,3.29,6.56,6.32,4a17.9,17.9,0,0,0,2.59-2.79c2.59-3.64,2.59-10.2,5.87-11a10.35,10.35,0,0,1,4.42.58,7.13,7.13,0,0,1,2.92,2.12c3.33,4.68,2.51,10.43.51,15.88a27.24,27.24,0,0,1-1.7,3.85,16.81,16.81,0,0,1-2,3c-2.46,1.65-4.92-9-10.75-5.71A10.12,10.12,0,0,0,130.85,132.69Z" transform="translate(206 130)"/><path class="cls-2" d="M165,147.25c-15-14.31-5.92-38.12-9.13-55.82,0-1.18,0-2.37,0-3.56q-.06-9-.05-18.19a3.05,3.05,0,0,1,2.21-3.2,13.09,13.09,0,0,1,4.09-.74,12.53,12.53,0,0,1,4.34.79,2.23,2.23,0,0,1,1.67,1.82,15.1,15.1,0,0,1,.3,3.1q-.33,14-.59,21.41c0,1-.07,1.91-.1,2.73-2.07,16,2.85,31.6-.33,48.32C166.75,145.82,166,147,165,147.25Z" transform="translate(206 130)"/><path class="cls-2" d="M195,133.63c-3.95,1.77-3.13,11.62-7.23,8.34-6.57-6.57-8.21-17.24-11.51-26.19-.32-.85-.61-1.7-.87-2.56s-.48-1.73-.67-2.61a51.32,51.32,0,0,1-1.13-10.89,53.21,53.21,0,0,1,2.76-16.64,31.51,31.51,0,0,1,8-13,19.75,19.75,0,0,1,21.77-3.2,18.65,18.65,0,0,1,7,6A31.57,31.57,0,0,1,217.25,81c.32,1,.6,2,.84,3,5,17-3.2,33.42-10.59,49-1.23,2.46-2.87,2.67-4.59,2.11a15.35,15.35,0,0,1-2.6-1.24,7.77,7.77,0,0,0-2.52-1A3.06,3.06,0,0,0,195,133.63Zm1.21-7.83c1.37-.74,3-.23,3.87-.25.66-1.06,1.3-2.16,1.92-3.27,5.56-10,9.36-21.78,7.39-33-.18-1-.38-2.05-.62-3.09s-.47-2.07-.76-3.12a24,24,0,0,0-6-10.74A3.31,3.31,0,0,0,199.52,71a7.22,7.22,0,0,0-4,1.77,16.4,16.4,0,0,0-5.62,9.46,57.49,57.49,0,0,0-1.7,8.87c-.12,1.07-.23,2.18-.31,3.31.76,9.84-2.52,23.79,5.94,31.52C194.55,125.91,195.38,125.86,196.24,125.8Z" transform="translate(206 130)"/><path class="cls-2" d="M244,132.56c-6.94-1.26-19.25,8.59-16-.44,2.47-5.75,14-4.1,22.12-4.91a8.72,8.72,0,0,0,1.45-3.07,12.34,12.34,0,0,0-.5-6.76,21.89,21.89,0,0,0-1.56-3.39c-3.45-8.14-12.48-8.14-18-13a35.72,35.72,0,0,1-3.38-2.78,27.15,27.15,0,0,1-1.95-2.07c-3.12-2.64-3.12-6.75-3.65-9.66a16.2,16.2,0,0,1,.32-3.12,20.86,20.86,0,0,1,1-3.28,22.42,22.42,0,0,1,9-11.33,25.21,25.21,0,0,1,13.59-3.74,22.8,22.8,0,0,1,3.66.29,20.31,20.31,0,0,1,3.41.88c13.13,3.51,14.77,19.93,11.48,30.6-4.1-2.46-9-6.57-9-10.67,0-4.93-.82-9.85-3.78-12.82a4.56,4.56,0,0,0-3.57-1.58c-2.69,0-5.16,1.39-7.39,4.19a13.68,13.68,0,0,0-3.35,8.61q0,5.24,5.42,9.17a31.8,31.8,0,0,0,4.14,2.46,18.4,18.4,0,0,1,1.95,1.12c12.33,7.73,19.72,25,9,36.66-.54,1-1.08,2.06-1.6,3.08a4,4,0,0,1-2.57,2.26,3.53,3.53,0,0,1-2.63-.81,53.76,53.76,0,0,0-4.71-4.51A8.38,8.38,0,0,0,244,132.56Z" transform="translate(206 130)"/></svg>