<svg id="Capa_1" data-name="Capa 1" xmlns="http://www.w3.org/2000/svg" viewBox="0 0 262.19 138.44"><defs><style>.cls-1{fill:#df90b6;}.cls-2{fill:#fff;}</style></defs><title>Botón Agenda tu cita</title><path class="cls-1" d="M186.11,84.09c-33.28,31.18-42.33,32.7-45,25.48-2.18-7.27-12-22.13-43-24.1C69.48,83.52,51,81.92,30.58,73c-19.6-8.51-41.11-24.29-57-46.29C-42.11,5-40.47-6.81-21.06-9.69-1.31-13.47,36.21-8.34,100-16.81c62-12.52,105.57-12.6,119.43,9.38C234.24,12.69,219.3,54.88,186.11,84.09Z" transform="translate(37.04 25.29)"/><path class="cls-2" d="M50.27-1.18,61.54,29.89H59.69l-5-13.67H44l-5,13.67H37.06L48.46-1.18Zm3.82,15.67-4.72-13-4.75,13Z" transform="translate(37.04 25.29)"/><path class="cls-2" d="M82,26.11c-.34.41-.69.81-1.06,1.19a10.63,10.63,0,0,1-15.08,0,10.26,10.26,0,0,1-3.13-7.53,10.22,10.22,0,0,1,3.13-7.54,10.71,10.71,0,0,1,15.08,0,13.39,13.39,0,0,1,1.1,1.29v-2.7h1.76V25.63A10,10,0,0,1,80.76,33a10.63,10.63,0,0,1-15.09,0,11.44,11.44,0,0,1-1.14-1.32L66.37,31a8.08,8.08,0,0,0,.64.68,8.76,8.76,0,0,0,12.44,0A8.49,8.49,0,0,0,82,26.11ZM82,18a8.66,8.66,0,0,0-2.4-4.42,8.82,8.82,0,0,0-15,6.24A8.83,8.83,0,0,0,73.4,28.6,8.48,8.48,0,0,0,79.64,26,8.51,8.51,0,0,0,82,21.63Z" transform="translate(37.04 25.29)"/><path class="cls-2" d="M88.46,18.8a6,6,0,0,0-.07,1,8.81,8.81,0,0,0,15,6.2c.29-.29.57-.6.84-.92l1.86.66a9.77,9.77,0,0,1-1.38,1.58,10.65,10.65,0,0,1-15.09,0,10.3,10.3,0,0,1-3.13-7.53,10.3,10.3,0,0,1,3.13-7.55,10.68,10.68,0,0,1,15.09,0,9,9,0,0,1,2.75,6.57ZM88.78,17h16.75a8.34,8.34,0,0,0-2.09-3.48,8.81,8.81,0,0,0-12.48,0A9,9,0,0,0,88.78,17Z" transform="translate(37.04 25.29)"/><path class="cls-2" d="M112.23,15.08V29.89h-1.76V10.82h1.76v1.23a7.6,7.6,0,0,1,5.54-2.37,7.34,7.34,0,0,1,7.67,7.45V29.89H123.7V17.3a5.59,5.59,0,0,0-1.76-4.15,5.93,5.93,0,0,0-8.33,0A6.37,6.37,0,0,0,112.23,15.08Z" transform="translate(37.04 25.29)"/><path class="cls-2" d="M150.31,29.89h-1.76V26a12.39,12.39,0,0,1-1.1,1.3,10.63,10.63,0,0,1-15.08,0,10.26,10.26,0,0,1-3.13-7.53,10.26,10.26,0,0,1,3.13-7.55,10.67,10.67,0,0,1,15.08,0,13.39,13.39,0,0,1,1.1,1.29V-1.18h1.76Zm-1.76-8.39V18.05a8.45,8.45,0,0,0-2.42-4.51,8.82,8.82,0,0,0-15,6.24,8.83,8.83,0,0,0,17.47,1.72Z" transform="translate(37.04 25.29)"/><path class="cls-2" d="M175,29.89H173.2V26a12.3,12.3,0,0,1-1.09,1.3,10.65,10.65,0,0,1-15.09,0,10.26,10.26,0,0,1-3.13-7.53A10.26,10.26,0,0,1,157,12.23a10.68,10.68,0,0,1,15.09,0,13.28,13.28,0,0,1,1.09,1.29v-2.7H175ZM173.2,21.5V18.05a8.43,8.43,0,0,0-2.41-4.51,8.82,8.82,0,0,0-15,6.24A8.82,8.82,0,0,0,173.2,21.5Z" transform="translate(37.04 25.29)"/><path class="cls-2" d="M58.79,46.82V38.71h1.74v8.11h3.89v1.76H60.53V65.89H58.79V48.58H54.9V46.82Z" transform="translate(37.04 25.29)"/><path class="cls-2" d="M74.9,66.16a7.7,7.7,0,0,1-5.69-2.11A7.49,7.49,0,0,1,67,58.71V46.8h1.76V58.55a5.57,5.57,0,0,0,1.76,4.13,5.86,5.86,0,0,0,4.33,1.74A5.71,5.71,0,0,0,79,62.69a5.63,5.63,0,0,0,1.75-4.14V46.8h1.75V58.71a7.32,7.32,0,0,1-7.64,7.45Z" transform="translate(37.04 25.29)"/><path class="cls-2" d="M114.27,61.3l1.85.68A13.78,13.78,0,0,1,115,63.3a10.67,10.67,0,0,1-18.22-7.54A10.68,10.68,0,0,1,115,48.23a12.57,12.57,0,0,1,1.14,1.31l-1.85.69c-.19-.24-.39-.47-.61-.71A8.56,8.56,0,0,0,107.42,47a8.81,8.81,0,0,0-6.21,15,8.79,8.79,0,0,0,12.45,0C113.88,61.76,114.08,61.53,114.27,61.3Z" transform="translate(37.04 25.29)"/><path class="cls-2" d="M122,40.58a1.62,1.62,0,0,1,.52,1.21,1.76,1.76,0,0,1-1.74,1.76,1.71,1.71,0,0,1-1.24-.51,1.69,1.69,0,0,1-.51-1.25,1.65,1.65,0,0,1,.51-1.21,1.71,1.71,0,0,1,1.24-.51A1.67,1.67,0,0,1,122,40.58Zm-.36,6.24V65.89h-1.73V46.82Z" transform="translate(37.04 25.29)"/><path class="cls-2" d="M128.82,46.82V38.71h1.73v8.11h3.89v1.76h-3.89V65.89h-1.73V48.58h-3.89V46.82Z" transform="translate(37.04 25.29)"/><path class="cls-2" d="M157.84,65.89h-1.75V62a13.73,13.73,0,0,1-1.1,1.3A10.66,10.66,0,1,1,139.9,48.23a10.68,10.68,0,0,1,15.09,0,15,15,0,0,1,1.1,1.29v-2.7h1.75Zm-1.75-8.39V54.05a8.72,8.72,0,1,0,0,3.45Z" transform="translate(37.04 25.29)"/></svg>