<svg id="Capa_1" data-name="Capa 1" xmlns="http://www.w3.org/2000/svg" viewBox="0 0 165 105.56"><defs><style>.cls-1{fill:#936b9e;}.cls-2{fill:#fff;}</style></defs><title>Sin título-2</title><path class="cls-1" d="M173,36.85c0,43.21-32.89,47.65-76.1,47.65S8,134.11,8,90.9,18.13,4.14,61.34,4.14,173-6.36,173,36.85Z" transform="translate(-8 -3.01)"/><path class="cls-2" d="M49.44,33.82V64.89H47.68V33.82Z" transform="translate(-8 -3.01)"/><path class="cls-2" d="M56.05,50.08V64.89H54.29V45.82h1.76v1.23a7.6,7.6,0,0,1,5.54-2.37,7.34,7.34,0,0,1,7.67,7.45V64.89H67.52V52.3a5.56,5.56,0,0,0-1.76-4.15,5.92,5.92,0,0,0-8.32,0A6.59,6.59,0,0,0,56.05,50.08Z" transform="translate(-8 -3.01)"/><path class="cls-2" d="M76.15,39.58a1.65,1.65,0,0,1,.51,1.21,1.74,1.74,0,0,1-3,1.25,1.66,1.66,0,0,1-.52-1.25,1.62,1.62,0,0,1,.52-1.21,1.74,1.74,0,0,1,2.46,0Zm-.37,6.24V64.89H74.05V45.82Z" transform="translate(-8 -3.01)"/><path class="cls-2" d="M97.05,60.3,98.9,61a13.78,13.78,0,0,1-1.14,1.32,10.67,10.67,0,0,1-18.22-7.54,10.68,10.68,0,0,1,18.22-7.53,12.57,12.57,0,0,1,1.14,1.31l-1.85.69c-.19-.24-.39-.47-.61-.71A8.56,8.56,0,0,0,90.2,46,8.81,8.81,0,0,0,84,61a8.79,8.79,0,0,0,12.45,0C96.66,60.76,96.86,60.53,97.05,60.3Z" transform="translate(-8 -3.01)"/><path class="cls-2" d="M104.75,39.58a1.62,1.62,0,0,1,.52,1.21,1.76,1.76,0,0,1-1.73,1.76,1.72,1.72,0,0,1-1.25-.51,1.69,1.69,0,0,1-.51-1.25,1.65,1.65,0,0,1,.51-1.21,1.72,1.72,0,0,1,1.25-.51A1.66,1.66,0,0,1,104.75,39.58Zm-.36,6.24V64.89h-1.73V45.82Z" transform="translate(-8 -3.01)"/><path class="cls-2" d="M119.25,44.11A10.64,10.64,0,0,1,129.9,54.78a10.65,10.65,0,1,1-10.65-10.67ZM113,48.54a8.5,8.5,0,0,0-2.59,6.24,8.82,8.82,0,0,0,17.63,0,8.8,8.8,0,0,0-15-6.24Z" transform="translate(-8 -3.01)"/></svg>