<svg id="Capa_1" data-name="Capa 1" xmlns="http://www.w3.org/2000/svg" viewBox="0 0 1366 768"><defs><style>.cls-1{fill:#0092a3;}.cls-2{fill:#df90b6;}</style></defs><title>paginanuestrosservicios</title><rect width="1366" height="768"/><path class="cls-1" d="M-95.06-212.19c-8-9.94-7.2-24-8.16-36.84-.08-1.2-.16-2.37-.23-3.52q-.6-10.31-.6-23.24,0-14.32,1.2-30.15c.2-2.72,1.62-4.08,4.28-4.08a20.94,20.94,0,0,1,5.77.8,19.2,19.2,0,0,0,5.47.79,4.66,4.66,0,0,1,4.48,3q2,5.37,3.68,10.85c.33,1.06.67,2.12,1,3.18q4.1,12.2,8,24.46c.36,1.17.73,2.34,1.09,3.51,1.69,4,1.69,9,4.18,13.12a175.06,175.06,0,0,1,1.6-20.44q.24-2.16.48-4.17c.16-1.33.31-2.61.46-3.84.3-2.46.68-5.54,1.15-9.26.2-1.46.39-3.08.59-4.87.14-1,.27-2,.4-2.89s.27-1.72.4-2.59A3.18,3.18,0,0,1-58-300.71a7.55,7.55,0,0,1,3.09-.65,8,8,0,0,1,3.28.7A2.24,2.24,0,0,1-50-298.57l-.1.89q-2.18,14.28-3.59,28.18l-.39,4c-2.56,17.69,3.24,35.11-3.39,51.7-3.32-10.78-12.44-18.25-15.24-30.25-.38-1-.76-2-1.12-3.07q-1.08-3.06-2-6.15-5.37-17-10.85-33.93v-.1a2.32,2.32,0,0,0-.5-1c-.06.86-.13,1.72-.2,2.58-.2,1.86-.33,3.68-.39,5.48q-.41,7.56-.7,12.54c-.08,1.32-.16,2.61-.23,3.85s-.14,2.45-.2,3.62c0,13.24-3.36,25.68,0,39.78.82,4.15.82,8.29-1.66,11.61a10.12,10.12,0,0,0-2.22-.85A16.89,16.89,0,0,1-95.06-212.19Z" transform="translate(595 329)"/><path class="cls-1" d="M-26.45-225a12.86,12.86,0,0,0-1.5,2.34c-2,4-2,8.65-5.48,12.1-10.78-19.07-12.44-43.95-11.16-65.24q.08-1.82.18-3.63c.21-3.63.54-7.28,1-10.93a3.62,3.62,0,0,1,2.84-3,17.74,17.74,0,0,1,4.42-.6,15.84,15.84,0,0,1,4.78.75A3.17,3.17,0,0,1-29-289.82a42.37,42.37,0,0,1-.8,6.07c-.13.8-.26,1.63-.4,2.49q-.21,1.71-.39,3.42c-.12,1.15-.23,2.29-.33,3.45,0,13.29-5,27.38,4.13,39.82,0,.83,2.48-2.28,3.93.09,1.05-.09,1.05.74,1.88.74,5-11.61,4.14-24.88,6.45-37.71q.18-2.32.3-4.65.26-4.63.36-9.34c.06-1.52.13-3.05.19-4.58a2.16,2.16,0,0,1,1.5-2.29,7.21,7.21,0,0,1,3.38-.89,7.6,7.6,0,0,1,3.28.75,2.58,2.58,0,0,1,1.6,2.53c-.07,2.13-.14,4.05-.2,5.78q-.3,7.45-.65,12.63-.09,1.31-.21,2.82c-.08,1-.17,2.12-.28,3.3-3.28,15.9.86,37.46-10.75,48.24-1.65.83-4.14-6.64-8-8.63A3.82,3.82,0,0,0-26.45-225Z" transform="translate(595 329)"/><path class="cls-1" d="M18.87-219.86c-.06,3.54-4.2,6-6.69,3.54C8-223.79,3.89-230.42,1.49-237.65c-.3-.83-.57-1.67-.81-2.51a31.13,31.13,0,0,1-1-8.16A59.36,59.36,0,0,1,4-272.2a28.77,28.77,0,0,1,8-10.55,17.76,17.76,0,0,1,11.64-4.18,17.5,17.5,0,0,1,4.18.5,11.29,11.29,0,0,1,7.52,5.32,17.25,17.25,0,0,1,2.43,8.91,20.93,20.93,0,0,1-.2,3,22.39,22.39,0,0,1-.59,2.91c-.74,6.06-4.06,10.2-8.16,14.48q-1,.91-2,1.71a24.71,24.71,0,0,1-2.21,1.45c-.76.43-1.55.83-2.37,1.22C13-245.35,10.52-237,16.33-229.59c2.48,2.49,4.14-.83,6.1-3.89a36.5,36.5,0,0,0,3.34-3.39,18.73,18.73,0,0,0,2.44-3.85c.56-.48.56-2.14,1.39-2.14,5-.83,8.29,5.81,8.29,10-.83,7.47-5,5.81-10.77,4.2a12.56,12.56,0,0,0-4.48,2.37,10.65,10.65,0,0,0-2,2.8C20.06-222.39,19.46-221.12,18.87-219.86Zm-4.79-30C15.5-251.15,18-252,19.76-254a21.46,21.46,0,0,0,2.3-2.37,19.72,19.72,0,0,0,2-2.83,27.78,27.78,0,0,0,3.78-13.43,10.52,10.52,0,0,0-.79-4,3.12,3.12,0,0,0-3.19-1.94,3.19,3.19,0,0,0-2,.69A19.73,19.73,0,0,0,15-266.33c-.26,1.19-.51,2.39-.73,3.59.43,4.12-2.89,9.1-.66,13.1Z" transform="translate(595 329)"/><path class="cls-1" d="M63.2-212.54c-4.58,1.19-4.58-3-5.41-5.44-2.49-5-5.8-9.12-9.12-13.27,0-.83.83-4.15,5-2.49,3.31,2.49,4.14,9.13,6.63,10,5.53.56,7.37-4.05,8.23-8.9.22-1.22.37-2.44.5-3.61a24.85,24.85,0,0,0,.32-3.64,33.87,33.87,0,0,0-.11-3.52,7.39,7.39,0,0,0-1.88-2.89c-3.4-3.29-9.91-4.68-14-7.74-1-.47-1.88-1-2.76-1.49s-1.71-1.1-2.49-1.69c-2-3-6.93-4.66-7-8.61a14.52,14.52,0,0,1-.92-5.13,18.2,18.2,0,0,1,1.29-6.47,22.6,22.6,0,0,1,9.06-11.44,25.44,25.44,0,0,1,13.73-3.78,19.28,19.28,0,0,1,3.74.34c12.11,4.72,22.07,24.62,11.28,35.4-1.65-1.66-4.14-3.31-5-5.8,0-8.3,0-18.25-7.82-23.1a7.06,7.06,0,0,0-3.94,1,12.64,12.64,0,0,0-3.56,3.17A13.81,13.81,0,0,0,55.68-273q0,5.28,5.47,9.26a33.08,33.08,0,0,0,4.18,2.48c9.88,10.11,24.81,22.55,18.52,37.37a16,16,0,0,1-2,3.42c-.62.62-1.19.36-1.8-.33s-1.26-1.82-2-2.93a9.35,9.35,0,0,0-2.82-2.85,4.37,4.37,0,0,0-4.14-.09,12.66,12.66,0,0,0-2.49,2.77,25.1,25.1,0,0,0-3.24,7.08C64.63-215.31,63.92-213.85,63.2-212.54Z" transform="translate(595 329)"/><path class="cls-1" d="M102.74-209.84c-6.8-14.77-7.63-30.53-6.8-46.34l.09-3.11c0-1.55.11-3.1.18-4.66,2.22-7.93-1.1-16.23,1.39-24.52a14.72,14.72,0,0,0-4.17.09c-1.48.19-3,.48-4.33.63s-3.94.94-4.77-1.55a6.87,6.87,0,0,1,1.26-3,6.32,6.32,0,0,1,3-1.07c2.44-.34,5.47-.19,7.78-.31,1.08-.08,2.13-.17,3.18-.23q7.8-.48,15.69-.49l3.38.1a8.29,8.29,0,0,1,3.23.7c1.1.47,1.64,1.1,1.64,1.89a2.08,2.08,0,0,1-1.29,1.74,5.62,5.62,0,0,1-2.88.75l-9,.2a1.41,1.41,0,0,0-.85.2,1,1,0,0,0-.25.79c-.06,1.66-.16,3.29-.29,4.88q-.37,6.27-.65,12.55c-.07,1.4-.13,2.8-.18,4.21-3.13,18.55,3.51,38.46-1.89,57C105-206.91,103.78-207.42,102.74-209.84Z" transform="translate(595 329)"/><path class="cls-1" d="M133.51-211.34c-7.71-13.27-9.37-27.37-9.15-42.14,0-1.27,0-2.54,0-3.8h-.2a254.39,254.39,0,0,1,2.79-36.52,5.53,5.53,0,0,1,4-4.68,14.06,14.06,0,0,1,3.73-1.09,31.92,31.92,0,0,1,3.73-.2h1a47.06,47.06,0,0,1,8.41.75,31.39,31.39,0,0,1,4.09,1,34,34,0,0,1,4,1.6c12.2,7.92,9.71,24.51,11.37,36.94.83,6.64-4.15,7.47-9.95,5.81-1.66-.83-2.49,2.49-2.49,4.15.83,9.12,10,17.41,5,26.53a13.05,13.05,0,0,1-2.76-2.8c-3.76-5.13-3.88-12.29-8-17.29-.46-.82-1-1.65-1.45-2.51a26.52,26.52,0,0,1-2.7-3.93c-14.93,11.61,0,32.34-7.46,48.1-.83-2.49-3.32-4.15-3-7.1Q134-209.91,133.51-211.34Zm5.37-40.39c2.67-1.91,6-4.4,8.77-6.09a24.53,24.53,0,0,0,2.65-1.78,24.27,24.27,0,0,0,2.4-2.15,33.32,33.32,0,0,0,2.1-3.17c4.17-6.14,2.51-11.94,1.71-17.74a18,18,0,0,0-1.19-3.13,18,18,0,0,0-1.62-2.68q-3.69-5-10.95-5.93c-.4,0-.6.17-.6.5l.1.3.1,1.29a17.14,17.14,0,0,1-.3,3.19c-.33,2.32-.66,4.68-1,7.06-.18,1.22-.36,2.43-.52,3.64s-.31,2.42-.45,3.63c-.2,7.05-1.86,15.34-1.81,22.56C138.28-251.63,138.48-251.46,138.88-251.73Z" transform="translate(595 329)"/><path class="cls-1" d="M192.29-224c-1,2.74-1.81,5.23-2.84,7.57a21,21,0,0,1-.75,2.56,8.29,8.29,0,0,1-3.19,4.22c-.56-1.31-1.13-2.62-1.72-3.94s-1.2-2.63-1.79-4c-5.62-10.35-8.93-21.13-11.45-32.76-.16-1.44-.26-2.89-.28-4.36a44.27,44.27,0,0,1,.14-4.44c.14-1.49.34-3,.6-4.46a80,80,0,0,1,7.16-21.21,25.54,25.54,0,0,1,2.55-2.82,19,19,0,0,1,13.68-5.17,18.88,18.88,0,0,1,8.31,1.94,18.74,18.74,0,0,1,7,6,31.83,31.83,0,0,1,5,11.19c.24,1,.45,2,.59,3-3.3,16.14-5,36.87-20.5,44.15A13.31,13.31,0,0,0,192.29-224Zm.7-9a7.58,7.58,0,0,0,4.1-2.25,28.92,28.92,0,0,0,3.68-4.58,47.51,47.51,0,0,0,5.57-22.29,46.78,46.78,0,0,0-1.74-12.34,24.44,24.44,0,0,0-6.12-10.85,3.35,3.35,0,0,0-2.49-1.39,7.25,7.25,0,0,0-4.08,1.79,16.61,16.61,0,0,0-5.67,9.55,54.6,54.6,0,0,0-1.27,5.8c-.17,1-.32,2.08-.45,3.17-1.5,11.12-.67,23.56,4.92,33.65C190.38-231.95,191.51-232.22,193-233Z" transform="translate(595 329)"/><path class="cls-1" d="M241.57-226.11c-5.48.67-9.62,5.64-15.43,5.64-2.49-.83-4.15-6.63-.83-7.46,6.64-.83,12.44-3.32,18.59-5a4.59,4.59,0,0,0,2.58-.81c5.37-4.14,2.05-10.78-2-14.38-.8-.53-1.61-1-2.44-1.46-5.1-3.23-11.73-4.06-16.3-8.15a21.55,21.55,0,0,1-2.77-2.8,15.11,15.11,0,0,1-3.7-10.48,19.46,19.46,0,0,1,.35-3.16,21.18,21.18,0,0,1,1-3.31,22.6,22.6,0,0,1,9.06-11.44,25.41,25.41,0,0,1,13.73-3.78,20.92,20.92,0,0,1,7.13,1.18,18.55,18.55,0,0,1,3.16,1.48c7.32,5.72,13.13,20.64,4,24-5,1.66-5.8-7.46-6.13-14.18a14.07,14.07,0,0,0-2.39-4.08,4.55,4.55,0,0,0-3.58-1.6q-4.08,0-7.46,4.23A13.82,13.82,0,0,0,234.7-273q0,5.28,5.48,9.26a32.39,32.39,0,0,0,4.18,2.48c.66.34,1.32.7,2,1.1,8.82,8.18,22.91,28.91,9.65,38.86-3.32,2.49-3.32-4.14-6.76-3.63a10.82,10.82,0,0,0-3.2-1.43A16.77,16.77,0,0,0,241.57-226.11Z" transform="translate(595 329)"/><path class="cls-1" d="M-87.41-125.6c-.76,2.16-4.07,3.82-5.73,3-4.15-3.32-7.46-8.29-5-14.93,5.81,10.78,14.93,3.32,19.08-4.14,5.8-10-8.3-13.27-15.15-17.54-1-.46-1.88-1-2.76-1.49a26.87,26.87,0,0,1-6.7-5.67,14.81,14.81,0,0,1-3.68-9.76A18.11,18.11,0,0,1-106-182.6,22.62,22.62,0,0,1-97-194a25.44,25.44,0,0,1,13.73-3.78,19.63,19.63,0,0,1,13.19,4.73,15.1,15.1,0,0,1,5.52,12,22.84,22.84,0,0,1-.3,3.58,3.34,3.34,0,0,1-1.94,2.59,7.76,7.76,0,0,1-3.43.79,8.14,8.14,0,0,1-3.08-.64c-1.07-.43-1.6-1.05-1.6-1.84.07-.47.13-.86.2-1.2a15.44,15.44,0,0,0,.3-1.54,11.94,11.94,0,0,0,.1-1.64,13.08,13.08,0,0,0-3.18-8.46,4.56,4.56,0,0,0-3.59-1.59q-4.08,0-7.46,4.23a13.78,13.78,0,0,0-3.38,8.7q0,5.28,5.47,9.26a33.15,33.15,0,0,0,4.18,2.49c.66.33,1.32.69,2,1.09A33.52,33.52,0,0,1-76.45-163c13.16,8.9,19,33.78,4.87,41.24-1.24.62.31-5.29-3.35-8.35a8.14,8.14,0,0,0-2.51-1c-2.43.27-4.92.27-6.76,2A27.08,27.08,0,0,0-87.41-125.6Z" transform="translate(595 329)"/><path class="cls-1" d="M-42.08-122.08c-2.13,2-2.13,7.76-3.79,5.27-9.12-11.61-17.42-24.87-15.62-40.67.1-1.48.23-2.94.36-4.34s.27-2.75.38-4,.52-2.65.86-4a55.39,55.39,0,0,1,2.52-7.56,28.74,28.74,0,0,1,8-10.55A17.73,17.73,0,0,1-41-191.8a19.62,19.62,0,0,1,3.19-.26c1.76.31,3.46.46,5,.85,14.23,8.89,10.08,31.28,1,42.06-4.15-3.32-9.12-3.32-13,.22a9.47,9.47,0,0,0-1.81,3,11.68,11.68,0,0,0,3.18,12.5c1.66.83,2.9-.42,4.11-2.32,1.69-2.66,3.35-6,5.84-6C-26-143.34-21.82-135-21-128.42c-5.81,0-12.44-9.12-17.14-2.68a14.35,14.35,0,0,0-2.2,4.39C-40.92-125.28-41.5-123.7-42.08-122.08ZM-47-154.24c1-.77,1.9-1.56,2.8-2.33,9.12-4.19,12.44-14.14,10-23.26a4.6,4.6,0,0,0-8.83.6,19,19,0,0,0-2.38,4.44,21,21,0,0,0-1,3.33c-1.1,5.73-2.76,11.53-1,17.52Z" transform="translate(595 329)"/><path class="cls-1" d="M-6.59-115.43c-.3,1.94-2,4.43-2,3.6a50.9,50.9,0,0,1-8-20.82c-.24-1.46-.44-2.92-.62-4.41-3.77-16.23-1.28-33.65.22-50.62.13-1.28.27-2.53.42-3.78.29-2.5.63-5,1-7.47a5.53,5.53,0,0,1,4-4.67,14.18,14.18,0,0,1,3.74-1.1,31.68,31.68,0,0,1,3.73-.2h1a47,47,0,0,1,8.41.75,32.31,32.31,0,0,1,8.11,2.64,20.77,20.77,0,0,1,2.82,1.72c10.08,11.66,12.57,29.91,3.44,42.35-1.65,3.32-2.48-6.64-5.8,0-3.32,7.46,5,16.59,5.8,25.71,0,2.49-2.48,6.63-5.8,4.14a27.41,27.41,0,0,1-2.11-3.79c-3-6.41-3.5-13.18-6.65-19.26l-1.55-2.81c-.27-.53-.56-1.06-.9-1.59-.13-.33-.33-.5-.59-.5a11.06,11.06,0,0,0-1.5.3,15.74,15.74,0,0,1-3.28.3h-.89a1.3,1.3,0,0,0-.65.1q-.15.1-.15.6c-.07,1.27-.13,2.55-.18,3.83s-.09,2.56-.13,3.85c-2.15,9,3.65,18.14-.92,26.85C-6-118.16-6.27-116.73-6.59-115.43Zm3.15-44.68a8.9,8.9,0,0,0,2.59-.4,23.55,23.55,0,0,0,8.64-4.22,24.24,24.24,0,0,0,2.41-2.15,28.89,28.89,0,0,0,2.1-3.25c4-4.73,2.37-12.19,1.7-17.72a20,20,0,0,0-1.18-3.07,17.73,17.73,0,0,0-1.63-2.68q-3.67-5-10.94-5.92c-.4,0-.6.16-.6.49l.1.3.1,1.3a17.12,17.12,0,0,1-.3,3.18q-.5,3.48-1,7.07-1.09,7.26-1.69,14.53c-.2,2.19-.36,4.34-.49,6.47-.14,1.79-.27,3.61-.4,5.47A.53.53,0,0,0-3.44-160.11Z" transform="translate(595 329)"/><path class="cls-1" d="M47.86-129.06c-3.34,2.3-5,11.43-6.65,8.94-8.3-12.44-5.81-28.2-9.1-43.28-.37-1.6-.73-3.17-1.06-4.76-2.71-12.67-4.11-25.72.54-37.23a11.82,11.82,0,0,1,4.58-1,10.63,10.63,0,0,1,3.58.6,3.88,3.88,0,0,1,2.39,2.49,83.55,83.55,0,0,1,1.3,9q1.38,12.89,3.47,25.78c.2,1.22.4,2.45.61,3.68a61.67,61.67,0,0,0,2.62,14.13q.6-2.34,1.14-4.5,2.58-10.83,3.95-17.34,1.64-7.82,3.33-17.37,1-5.17,2.39-12.34a2.11,2.11,0,0,1,1.19-1.39,7.39,7.39,0,0,1,3.59-1A8.68,8.68,0,0,1,69-204a2.3,2.3,0,0,1,1.69,2.19l-.1,1c-.2,1.07-.43,2.13-.69,3.19Q68.82-192.86,68-188q-4.09,23.49-10.35,46.58a56.64,56.64,0,0,1-2.19,6.86,5.73,5.73,0,0,1-3.09,2.84,18.26,18.26,0,0,0-2.15.89A9.54,9.54,0,0,0,47.86-129.06Z" transform="translate(595 329)"/><path class="cls-1" d="M80.93-118.55A26.31,26.31,0,0,1,77.7-111c-4.15-21.56-.83-43.12-3.27-64.51,0-1.44,0-2.9,0-4.36q0-6.57,0-13.28a3.1,3.1,0,0,1,2.24-3.24,13.09,13.09,0,0,1,4.13-.74,12.75,12.75,0,0,1,4.38.79,2.26,2.26,0,0,1,1.69,1.84,15.5,15.5,0,0,1,.3,3.14q-.39,16.92-.69,24.38c-.06,2.64-.11,5.47-.18,8.5,0,1,0,2-.07,3.1-1,10.38,1.47,22-3.74,32.19A38.28,38.28,0,0,0,80.93-118.55Z" transform="translate(595 329)"/><path class="cls-1" d="M113.87-129.5c-3.83,2.74-3.83,14.35-7.15,10.21-12.44-14.1-13.27-34-13-52.45.11-1.14.25-2.29.41-3.45s.35-2.31.56-3.48a48.26,48.26,0,0,1,4.18-12.79,19.54,19.54,0,0,1,7.22-7.91,18.78,18.78,0,0,1,9.8-2.64,15.91,15.91,0,0,1,12.64,5.82,21.07,21.07,0,0,1,5,14.18,9.84,9.84,0,0,1-.35,2.64,3.14,3.14,0,0,1-1.74,1.94,6.93,6.93,0,0,1-3.09.8,6.1,6.1,0,0,1-3.13-.85,2.83,2.83,0,0,1-1.45-2.64v-1a23.14,23.14,0,0,0-1.89-9.26.86.86,0,0,1-.1-.3,25.75,25.75,0,0,0-1.14-2.38q-.64-1.2-1.44-1.2l-.5.2a15.61,15.61,0,0,0-6.12,6.82,38.83,38.83,0,0,0-2.94,8.61q-.35,1.62-.63,3.3c-.2,1.12-.37,2.26-.53,3.42-1.73,10.31-.9,20.26.76,30.22.83,2.48,3.32,6.63,6.38,4a18.3,18.3,0,0,0,2.62-2.82c2.61-3.67,2.61-10.31,5.93-11.14a10.5,10.5,0,0,1,4.46.6,7,7,0,0,1,3,2.14c3.37,4.73,2.54,10.53.52,16a28.34,28.34,0,0,1-1.72,3.89,16.63,16.63,0,0,1-2.07,3c-2.48,1.66-5-9.12-10.86-5.77A10.24,10.24,0,0,0,113.87-129.5Z" transform="translate(595 329)"/><path class="cls-1" d="M148.37-114.79c-15.11-14.45-6-38.5-9.23-56.39l0-3.6q0-9,0-18.37a3.09,3.09,0,0,1,2.24-3.24,13,13,0,0,1,4.13-.74,12.74,12.74,0,0,1,4.37.79,2.27,2.27,0,0,1,1.7,1.84,15.5,15.5,0,0,1,.3,3.14q-.34,14.1-.6,21.63c0,1-.07,1.92-.1,2.75C149-150.81,154-135,150.77-118.16,150.14-116.23,149.35-115,148.37-114.79Z" transform="translate(595 329)"/><path class="cls-1" d="M178.71-128.55c-4,1.79-3.16,11.74-7.3,8.43-6.64-6.64-8.3-17.42-11.63-26.46-.33-.85-.62-1.72-.88-2.59s-.49-1.75-.68-2.63a52.43,52.43,0,0,1-1.14-11,53.73,53.73,0,0,1,2.79-16.82A31.81,31.81,0,0,1,168-192.76a19,19,0,0,1,13.68-5.17A19,19,0,0,1,190-196a18.74,18.74,0,0,1,7,6,31.59,31.59,0,0,1,4.18,8.2c.32,1,.61,2,.85,3,5.06,17.18-3.24,33.77-10.7,49.53-1.24,2.48-2.9,2.69-4.64,2.12a15.6,15.6,0,0,1-2.63-1.24,7.63,7.63,0,0,0-2.54-1A3.09,3.09,0,0,0,178.71-128.55Zm1.22-7.91c1.39-.74,3.08-.23,3.92-.25.66-1.08,1.31-2.18,1.93-3.3,5.62-10.13,9.46-22,7.46-33.33-.17-1-.37-2.07-.62-3.12s-.47-2.1-.76-3.16a24.49,24.49,0,0,0-6.12-10.85,3.38,3.38,0,0,0-2.49-1.39,7.32,7.32,0,0,0-4.08,1.79,16.61,16.61,0,0,0-5.67,9.56,58.52,58.52,0,0,0-1.72,8.95c-.12,1.09-.23,2.2-.31,3.35.77,9.94-2.55,24,6,31.84C178.22-136.35,179.06-136.4,179.93-136.46Z" transform="translate(595 329)"/><path class="cls-1" d="M228.18-129.63c-7-1.27-19.45,8.68-16.14-.44,2.49-5.81,14.1-4.15,22.35-5a9.1,9.1,0,0,0,1.46-3.11,12.28,12.28,0,0,0-.51-6.82,20.14,20.14,0,0,0-1.57-3.42c-3.48-8.23-12.6-8.23-18.17-13.1a36.4,36.4,0,0,1-3.41-2.81,25.8,25.8,0,0,1-2-2.09c-3.15-2.67-3.15-6.82-3.68-9.76a16.42,16.42,0,0,1,.32-3.15,20.87,20.87,0,0,1,1-3.31A22.62,22.62,0,0,1,216.89-194a25.41,25.41,0,0,1,13.73-3.78,23.4,23.4,0,0,1,3.7.29,20.08,20.08,0,0,1,3.45.89c13.25,3.55,14.91,20.13,11.59,30.92-4.15-2.49-9.12-6.64-9.12-10.79,0-5-.83-9.95-3.82-12.94a4.62,4.62,0,0,0-3.61-1.6q-4.08,0-7.46,4.23a13.8,13.8,0,0,0-3.39,8.7q0,5.28,5.48,9.26a32.45,32.45,0,0,0,4.18,2.49,18.76,18.76,0,0,1,2,1.13c12.45,7.81,19.92,25.22,9.09,37-.55,1-1.09,2.08-1.61,3.11a4,4,0,0,1-2.6,2.28,3.57,3.57,0,0,1-2.66-.82,56.46,56.46,0,0,0-4.76-4.56A8.78,8.78,0,0,0,228.18-129.63Z" transform="translate(595 329)"/><ellipse class="cls-1" cx="-477" cy="-221.5" rx="59.94" ry="81.81" transform="translate(638.36 183.75) rotate(-16.57)"/><ellipse class="cls-1" cx="650" cy="-116.5" rx="81.81" ry="59.94" transform="translate(1246.39 872.86) rotate(-79.96)"/><ellipse class="cls-1" cx="-97.33" cy="199.83" rx="31.23" ry="42.62" transform="translate(551.54 313.18) rotate(-11.94)"/><ellipse class="cls-1" cx="605.67" cy="331.83" rx="42.62" ry="31.23" transform="translate(725.6 1162.1) rotate(-75.25)"/><ellipse class="cls-2" cx="414" cy="-250" rx="58.68" ry="34.23" transform="translate(1182.99 530.25) rotate(-79.96)"/><ellipse class="cls-2" cx="-485" cy="282" rx="34.23" ry="58.68" transform="translate(494.42 202.38) rotate(-16.57)"/></svg>